<svg width="191" height="38" viewBox="0 0 191 38" fill="none" xmlns="http://www.w3.org/2000/svg"><g clip-path="url(#a)"><path d="M6.07 20.72v-2.26c6.6836-.9177 13.4237-1.3621 20.17-1.33 0 .6 0 1.21-.06 1.82 1.9176-.851 3.9328-1.4623 6-1.82-1.3175-3.408-3.7182-6.2888-6.8329-8.19913-3.1147-1.91035-6.7707-2.74447-10.4057-2.37404-3.635.37044-7.04761 1.92489-9.71288 4.42427C2.56325 13.4804.792969 16.7863.190001 20.39L6.07 20.72ZM27.24 24.23c-1.16 1.28-1.39 1.2-1.39 3.45v9.18c2.2925-1.514 4.1745-3.5721 5.478-5.9906 1.3035-2.4185 1.9878-5.122 1.992-7.8694-.0132-1.0409-.1203-2.0784-.32-3.1-2.0718 1.2295-4.0033 2.6814-5.76 4.33ZM6.36 25.72s-3.79-1.44-5.19-1.83c-.382933-.1207-.773903-.2143-1.17-.28.108395 2.886.965588 5.6941 2.48739 8.1486 1.5218 2.4545 3.65587 4.471 6.19261 5.8514L6.36 25.72Z" fill="#FDC305"/><path d="M26.29 17.12c.0407-5.5214-.428-11.03472-1.4-16.47 0 0-.14-1.29-.89-.24-.5891 1.24814-.9933 2.57539-1.2 3.94-4.2582-.27423-8.5325-.16043-12.77.34C9.24 2 7.85.75 7.18 1c-.67.25-.72 3.31-.72 3.31l-.33 14.1c6.6813-.904 13.418-1.3351 20.16-1.29Z" fill="#F06351"/><path d="M12.41 14c0-.09 1 .68 1.41.92.41.24.61.42.61.59 0 .17-.27.34-.63.34s-.91-.12-1-.27h1.23c-.6093-.4506-1.1543-.9822-1.62-1.58ZM19.89 14.11l-1.09 1.33c0 .06-.17.35.18.3.4142-.0617.8223-.1588 1.22-.29.11 0 .07-.19-.11-.17-.18.02-.69.05-1 .11l.84-1.26s.07-.13-.04-.02ZM16.75 20.2c.4635-.2042.8467-.5557 1.09-1 .28-.65 0-.91-.44-1-.6021-.1098-1.2235.0116-1.74.34-.39.36-.34.72-.05 1 .3513.2662.7342.4879 1.14.66Z" fill="#000"/><path d="M16.35 21.45c-.1121.2285-.2684.4325-.46.6-.2848.2291-.6349.3622-1 .38-.5262.042-1.0494-.1111-1.47-.43-.1978-.1192-.3764-.2676-.53-.44-.1005-.1109-.2231-.1995-.36-.26 0 0 .75 4.1 2.57 4.75 1.82.65 2.14-.75 2.2-1.13.0601-1.1349-.2258-2.2612-.82-3.23-.02-.31-.03-.11-.13-.24Z" fill="#F06351"/><path d="M14.71 22.59c-.4647-.0653-.9111-.2249-1.3118-.4691-.4007-.2442-.7472-.5678-1.0182-.9509-.0133-.013-.0239-.0286-.0311-.0458-.0072-.0171-.0109-.0356-.0109-.0542s.0037-.0371.0109-.0542c.0072-.0172.0178-.0328.0311-.0458.013-.0133.0286-.0239.0458-.0311.0171-.0072.0356-.0109.0542-.0109s.0371.0037.0542.0109c.0172.0072.0328.0178.0458.0311.5048.6942 1.263 1.1613 2.11 1.3.3317-.025.6526-.1287.9361-.3026.2835-.174.5214-.413.6939-.6974l.14-.19.1.21s.37.76 1 .8c.63.04 1.05-.41 1.61-1.28.013-.0133.0286-.0239.0458-.0311.0171-.0072.0356-.0109.0542-.0109s.0371.0037.0542.0109c.0172.0072.0328.0178.0458.0311.0323.0206.0555.0529.0648.09.0093.0372.004.0766-.0148.11-.64 1-1.27 1.44-1.88 1.4-.232-.0337-.4533-.1196-.6473-.2513-.194-.1316-.3556-.3056-.4727-.5087-.1967.2745-.4524.5014-.7483.6641-.2959.1626-.6246.2569-.9617.2759Z" fill="#000"/><path d="M26.24 18.92c-1.7955 1.6237-3.4888 3.357-5.07 5.19-1.5714 1.8261-3.3462 3.4668-5.29 4.89-.22-.53-1.62-1.51-1.62-1.51s-3.13-2.14-5.18-3.82c-1.10586-.9327-2.1513-1.9347-3.13-3l-2-.11c2.89018 4.2055 7.1202 7.3076 12 8.8.86-.14 3.27-1.86 5.07-3.26 2.1189-1.8181 4.104-3.7866 5.94-5.89.5025-.589.8893-1.2675 1.14-2-1.1.39-1.86.71-1.86.71Z" fill="#F06351"/></g><g clip-path="url(#b)" fill="#111"><path d="M91.2645 29.5385c-.8949-1.2623-1.3392-2.7758-1.2645-4.3077v-6.3846c-.1084-1.5485.3081-3.0887 1.1855-4.3847.8693-1 2.2128-1.4615 4.1885-1.4615 1.9758 0 3.2403.4615 4.0305 1.3077.8585 1.0717 1.2805 2.4137 1.1855 3.7692v1.5385h-3.8725v-1.7692c.0313-.5233-.0494-1.0472-.2371-1.5385-.1002-.1983-.2592-.3629-.4564-.4726-.1971-.1096-.4235-.1594-.65-.1428-.5532 0-.9483.1539-1.1064.5385-.1788.5465-.259 1.1191-.2371 1.6923v8.2307c-.0417.5562.0673 1.1132.3161 1.6154.1581.3846.5533.5385 1.1065.5385s.8693-.1539 1.0273-.5385c.1797-.5198.2601-1.0673.2371-1.6154v-1.8461h3.8725v1.5385c.08 1.3776-.339 2.739-1.1855 3.8461-.7902.9231-2.1338 1.3846-4.0305 1.3846-1.8967-.0769-3.3192-.5384-4.1095-1.5384ZM105.253 13.2308h4.504l3.32 17.5384h-3.636l-.632-3.6923h-2.608l-.632 3.6923h-3.715l3.399-17.5384Zm3.24 11.5384-.948-6.8461-.949 6.8461h1.897ZM115.843 16.1538h-2.687v-2.923h9.404v2.8461h-2.687v14.6923h-4.03V16.1538ZM129.752 13.2308h6.955v1.8461h-4.505v5.7693h3.635v1.7692h-3.635v6.4615h4.505v1.7693h-7.034V13.2308h.079ZM138.761 13.2308h1.739l5.137 11.6154V13.2308h2.055v17.5384h-1.581l-5.216-12v12h-2.134V13.2308ZM150.063 13.2308h6.954v1.8461h-4.504v5.7693h3.635v1.7692h-3.635v6.4615h4.504v1.7693h-6.954V13.2308ZM159.072 13.2308h3.635c1.43-.0962 2.852.2836 4.031 1.0769.869.6923 1.264 1.9231 1.264 3.5385 0 2.2307-.711 3.6153-2.212 4.0769l2.528 8.7692h-2.449l-2.371-8.2308h-1.976v8.2308h-2.529V13.2308h.079Zm3.477 7.5384c.815.0654 1.627-.1527 2.292-.6154.474-.3846.711-1.1538.711-2.3076.022-.5732-.058-1.1458-.237-1.6924-.178-.3921-.483-.7165-.869-.923-.544-.2415-1.142-.3472-1.739-.3077h-1.106v5.7692h.948v.0769ZM171.164 29.4615c-.822-1.3449-1.208-2.8998-1.107-4.4615v-5.8462c-.019-1.1147.113-2.227.395-3.3076.265-.8076.792-1.5095 1.502-2 .882-.5085 1.9-.7495 2.924-.6924 1.66 0 2.845.3847 3.556 1.2308.818 1.1173 1.21 2.4778 1.107 3.8462v.6154h-2.371v-.5385c.003-.6442-.05-1.2876-.158-1.9231-.067-.4016-.294-.7611-.633-1-.444-.2838-.971-.4188-1.501-.3846-.567-.0353-1.128.1284-1.581.4615-.186.1525-.338.3403-.446.5519-.109.2117-.172.4427-.186.6789-.104.6877-.157 1.3818-.158 2.0769v6.5385c-.058.9961.103 1.9929.474 2.9231.316.6154.949.8461 1.897.8461.374.0454.754-.018 1.092-.1822.337-.1643.617-.422.805-.7409.417-.9727.606-2.0239.553-3.0769v-1.2307h-2.292v-1.7693h4.584v8.6923h-1.581l-.237-2c-.207.6703-.639 1.2539-1.226 1.6581-.587.4042-1.296.6058-2.014.5727-.653.0374-1.306-.0836-1.899-.3521s-1.108-.6762-1.499-1.1864ZM184.678 24.6154l-3.873-11.3077h2.371l2.766 8.4615 2.687-8.4615H191l-3.872 11.3077v6.1538h-2.371v-6.1538h-.079Z"/></g><defs><clipPath id="a"><path fill="#fff" d="M0 0h33.32v37.61H0z"/></clipPath><clipPath id="b"><path fill="#fff" transform="translate(90 13)" d="M0 0h101v18H0z"/></clipPath></defs></svg>