<svg xmlns="http://www.w3.org/2000/svg" xmlns:xlink="http://www.w3.org/1999/xlink"><defs><clipPath id="a"><path fill="#fff" transform="translate(30)" d="M0 0h140v194H0z"/></clipPath><clipPath id="a"><path fill="#fff" transform="translate(0 44)" d="M0 0h268v112H0z"/></clipPath><clipPath id="a"><path fill="#fff" transform="translate(7)" d="M0 0h36v50H0z"/></clipPath><clipPath id="a"><path fill="#fff" transform="translate(0 11)" d="M0 0h67v28H0z"/></clipPath><clipPath id="a"><path fill="#fff" transform="translate(15.5 14)" d="M0 0h30v32H0z"/></clipPath><clipPath id="a"><path fill="#fff" d="M0 0h20v20H0z"/></clipPath><clipPath id="a"><path fill="#fff" d="M0 0h20v20H0z"/></clipPath><clipPath id="a"><path fill="#fff" transform="translate(0 .32)" d="M0 0h20v20.069H0z"/></clipPath><clipPath id="a"><path fill="#fff" transform="translate(15.5 14)" d="M0 0h30v32H0z"/></clipPath><clipPath id="a"><path fill="#fff" transform="translate(15.5 13)" d="M0 0h29v31H0z"/></clipPath><clipPath id="a"><path fill="#fff" d="M0 0h202v59H0z"/></clipPath><clipPath id="a"><path fill="#fff" d="M0 0h128v24H0z"/></clipPath><clipPath id="a"><path fill="#fff" d="M0 0h33.32v37.61H0z"/></clipPath><clipPath id="b"><path fill="#fff" transform="translate(90 13)" d="M0 0h101v18H0z"/></clipPath><clipPath id="a"><path fill="#fff" d="M0 0h174v51.683H0z"/></clipPath></defs><symbol id="cat-back-tablet-1"><g fill="none"><circle cx="100" cy="111" r="100" fill="#68B738"/><g clip-path="url(#a)"><path d="M139.68 0h-.76A7 7 0 0 0 136 3.18a31.04 31.04 0 0 0-2.58 6.82 3.257 3.257 0 0 1-2.96 2.68A14.675 14.675 0 0 0 120 20.24a54.62 54.62 0 0 0-3.7 8c-2.84 7.36-5.02 14.96-7.7 22.38-1.26 3.38-1.32 3.38-5.12 3.38-4.54 0-4.22-.7-4.28 4.3 0 1.58.48 2.38 2.16 2.3.52 0 1.3-.26 1.5.42.2.68-.48.98-.88 1.38a18 18 0 0 1-8.66 4.88c-3.8 1.02-7.68 1.82-11.38 3.06-9.5 3.18-18.28 7.62-25.12 15.14a56 56 0 0 0-9.48 15.68c-7.34 17.28-10.9 35.48-13.66 53.86-1.3 8.62-2.22 17.28-2.92 26-.36 4.28-.76 8.62-.76 12.98h66.66c.11-.88-.05-1.773-.46-2.56a10.002 10.002 0 0 0-7.66-6.14c-1.4-.32-1.56-.74-.7-1.84a20.692 20.692 0 0 0 3.18-6.2c3.26-9.62 4.52-19.66 6.1-29.6A60.008 60.008 0 0 1 104 126a43.215 43.215 0 0 1 11.18-12.74c1.66-1.26 1.72-1.26 2 .88.2 1.42.24 2.88.34 4.32.6 9.449.48 18.93-.36 28.36a123.318 123.318 0 0 0-.3 22A150.344 150.344 0 0 0 121.4 194H148a10.817 10.817 0 0 0-8.48-8.88 18.007 18.007 0 0 0-7.52.4c-1.2.28-1.7 0-1.8-1.3a112.726 112.726 0 0 1 2-31.64 355.46 355.46 0 0 0 6.12-36.36 35.499 35.499 0 0 1 4.56-14c2.38-4.24 4.46-8.64 6.8-12.9a11.745 11.745 0 0 0 .84-10.38c-.54-1.42-1.06-2.86-1.72-4.22-2-3.9-4-7.76-5.84-11.7-.98-2-.76-2.24 1.42-2.3 3.26 0 3.26 0 3.32-3.28v-1.32c0-1.38-.52-2.14-2-2h-3.04c-1.38 0-1.78-.58-1.44-2a12.483 12.483 0 0 1 10.26-8.86 43.999 43.999 0 0 1 13.24.86 1.999 1.999 0 0 0 2.5-1.28c.8-2 1.68-4 2.58-6a1.997 1.997 0 0 0-.2-2.28c-6.4-8.12-13.34-15.7-22.8-20.56a2.977 2.977 0 0 1-1.76-2.24 39.163 39.163 0 0 0-2.54-8.32A7 7 0 0 0 139.68 0Z" fill="#000"/></g></g></symbol><symbol id="cat-back-tablet-2"><g fill="none"><circle cx="136" cy="100" r="100" fill="#68B738"/><g clip-path="url(#a)"><path d="M246.2 55.6a30.402 30.402 0 0 1 9-9.2c2-1.4 3.2-1.4 4.4 1.2 1.6 3.8 3 7.8 1.8 12a4.577 4.577 0 0 0 .8 4.2c1.2 1.6 2.2 3.2 3.2 4.6a12.541 12.541 0 0 1 1.8 12.4 10.865 10.865 0 0 0-.4 6.2c.4 1.98.4 4.02 0 6a7.502 7.502 0 0 1-5.4 6.4 10.423 10.423 0 0 0-6.4 4 2.104 2.104 0 0 1-1.8 1c-2.4.4-8.4-5-8.4-7.4v-1.2c.2-7.2-.2-7.8-6.8-10.8a8.783 8.783 0 0 1-3.6-2.4c-1.2-1.6-2.8-1.4-4.6-.8-1.8.6-2.8 1.8-2.6 3.8.603 4.842.804 9.725.6 14.6.013.556.15 1.103.4 1.6 6.2 9 8.6 19.6 11.6 29.8 2.4 7.8 6.8 12 14.8 12.6 1.28.102 2.551.303 3.8.6a8.322 8.322 0 0 1 6.8 6.4c1.4 4.2.6 5.2-3.6 5.2h-13a6.481 6.481 0 0 1-4.6-1.6 23.413 23.413 0 0 0-6.8-4 14.525 14.525 0 0 1-6.8-5.2 57.213 57.213 0 0 0-8-9c-5.6-5.8-11.6-11.4-16.8-17.4a22.758 22.758 0 0 1-6.4-15.2c0-1.8-.4-2.6-2.4-1.8a3.865 3.865 0 0 1-2 .6c-5.6 0-8.4 3.4-10.4 8.4-1.8 4.2-4.2 8.2-6.4 12.4a20.786 20.786 0 0 0-2 8.4c0 4.8 1.2 6.4 5.6 8 2.8 1 5.4 2 6.8 4.8 1.6 3.2 1.2 4-2.2 4.2h-13.6a3.763 3.763 0 0 1-3.8-2.2l-3.6-6a12.103 12.103 0 0 1-1.4-10.8c.866-3.473.934-7.097.2-10.6a16.841 16.841 0 0 1 3.4-14c1.2-1.4 1.2-2-.8-2.4a100.105 100.105 0 0 1-23.6-8.2.198.198 0 0 1-.141-.059.198.198 0 0 1-.059-.141c-6.4-2.4-7.6-2-9.4 4.6-1.6 5.6-3.2 11.2-4.4 17-1.4 6.4.2 12.4 2.2 18.4.8 2.4 3.2 2.2 5 2.8 4 1.2 7.4 2.8 9 7 1.4 3.2 1.2 3.6-2.2 3.6-3.4 0-6.8-.2-10.4 0a13.278 13.278 0 0 1-8.4-2.8c-9.6-6.4-12.4-16.2-13.2-26.8-.4-6.6-4-11.8-8.2-16.8-.8-1-1.6-1.4-2.8-.6a88.649 88.649 0 0 1-13.4 6 53.421 53.421 0 0 0-24.4 17.6 21.26 21.26 0 0 0-4.4 10.2c-.6 3.6.4 5.2 4 6.2s5.4 3 5.8 6.8c.2 1.6-.4 2.4-2 2.4H49.4a3.308 3.308 0 0 1-2.6-1.6 17.121 17.121 0 0 1-3.8-11c-.105-6.91.498-13.813 1.8-20.6a12.594 12.594 0 0 1 6.8-9.6c11.8-5.6 18-16.2 23.6-27.2 1.2-2.2.2-2.6-1.8-2.4A32.94 32.94 0 0 0 58 84.2a141.246 141.246 0 0 0-16.6 14.2 33.342 33.342 0 0 1-20.6 9.8C6.2 109-.6 100.8 0 87.6a19.38 19.38 0 0 1 4.8-12.2 8.5 8.5 0 0 1 9-3c3 .8 3.8 2.4 2.6 5.4-.6 1.2-1.4 2.2-2 3.4a15.001 15.001 0 0 0-2 4c-2.2 6 .8 10.2 7 10.8 6.6.6 12-2.2 17-6.2a89.878 89.878 0 0 0 16-16.6A41.58 41.58 0 0 1 81.2 57c4.6-.6 8.6-2.6 13-3.8a83.02 83.02 0 0 1 25.4-3.6 26.001 26.001 0 0 0 11.6-2.2c9.8-4 20-4 30.2-2 8 1.6 16 3.6 23.8 5.6a33.16 33.16 0 0 0 14-.4 135.58 135.58 0 0 1 26.8-4 36.32 36.32 0 0 1 17.2 3.4c4 1.8 4 1.8 3 5.6Z" fill="#000"/></g></g></symbol><symbol id="icons-alarm"><g fill="none"><path fill="#68B738" d="M.5 0h60v60H.5z"/><ellipse cx="35.704" cy="24.33" rx="1.087" ry="1.085" fill="#fff"/><ellipse cx="24.831" cy="24.33" rx="1.087" ry="1.085" fill="#fff"/><ellipse cx="24.831" cy="37.351" rx="1.087" ry="1.085" fill="#fff"/><ellipse cx="30.268" cy="39.522" rx="1.087" ry="1.085" fill="#fff"/><ellipse cx="21.569" cy="30.775" rx="1.087" ry="1.085" fill="#fff"/><ellipse cx="38.966" cy="30.775" rx="1.087" ry="1.085" fill="#fff"/><ellipse cx="35.704" cy="37.351" rx="1.087" ry="1.085" fill="#fff"/><mask id="a" fill="#fff"><path fill-rule="evenodd" clip-rule="evenodd" d="M35.422 42.058a1.058 1.058 0 0 1 1.217.196l1.825 1.875a.682.682 0 0 0 .977-.95l-1.357-1.394c-.426-.437-.361-1.15.098-1.552 2.642-2.313 4.318-5.764 4.318-9.618C42.5 23.648 37.023 18 30.268 18c-6.756 0-12.232 5.648-12.232 12.614 0 3.815 1.641 7.234 4.236 9.547.452.403.513 1.11.09 1.544l-1.434 1.473a.681.681 0 1 0 .976.951l1.88-1.93a1.058 1.058 0 0 1 1.226-.191 11.878 11.878 0 0 0 5.258 1.221c1.841 0 3.587-.42 5.154-1.17Zm-5.154-.23c6.005 0 10.873-5.02 10.873-11.213s-4.868-11.213-10.873-11.213c-6.005 0-10.873 5.02-10.873 11.213 0 6.192 4.868 11.212 10.873 11.212Zm-.76-11.53v-7.357a.781.781 0 1 1 1.563 0v8.182c0 .443-.36.803-.803.803a.76.76 0 0 1-.76-.76v-.868Z"/></mask><path fill-rule="evenodd" clip-rule="evenodd" d="M35.422 42.058a1.058 1.058 0 0 1 1.217.196l1.825 1.875a.682.682 0 0 0 .977-.95l-1.357-1.394c-.426-.437-.361-1.15.098-1.552 2.642-2.313 4.318-5.764 4.318-9.618C42.5 23.648 37.023 18 30.268 18c-6.756 0-12.232 5.648-12.232 12.614 0 3.815 1.641 7.234 4.236 9.547.452.403.513 1.11.09 1.544l-1.434 1.473a.681.681 0 1 0 .976.951l1.88-1.93a1.058 1.058 0 0 1 1.226-.191 11.878 11.878 0 0 0 5.258 1.221c1.841 0 3.587-.42 5.154-1.17Zm-5.154-.23c6.005 0 10.873-5.02 10.873-11.213s-4.868-11.213-10.873-11.213c-6.005 0-10.873 5.02-10.873 11.213 0 6.192 4.868 11.212 10.873 11.212Zm-.76-11.53v-7.357a.781.781 0 1 1 1.563 0v8.182c0 .443-.36.803-.803.803a.76.76 0 0 1-.76-.76v-.868Z" fill="#fff"/><path d="m23.784 42.199 2.866 2.79-2.866-2.79Zm1.226-.191 1.765-3.59-1.765 3.59Zm-3.106 2.121-2.866-2.79 2.866 2.79Zm-.976-.95 2.865 2.79-2.865-2.79Zm17.156-1.394-2.865 2.79 2.865-2.79Zm.098-1.552-2.635-3.009 2.635 3.01Zm-15.91-.072-2.662 2.985 2.662-2.985Zm.09 1.544-2.866-2.79 2.866 2.79Zm17.079 1.473 2.866-2.79-2.866 2.79Zm-.977.951 2.866-2.79-2.866 2.79Zm-1.825-1.875-2.866 2.79 2.866-2.79Zm-1.217-.196-1.73-3.606 1.73 3.606Zm-1.65 2.987L35.6 46.92l5.731-5.581-1.826-1.875-5.731 5.58Zm8.535-4.658-1.357-1.393-5.731 5.582 1.356 1.393 5.732-5.582Zm-1.49 2.855c3.49-3.056 5.683-7.595 5.683-12.627h-8c0 2.676-1.16 5.038-2.953 6.61l5.27 6.017ZM46.5 30.615C46.5 21.554 39.348 14 30.268 14v8c4.431 0 8.232 3.74 8.232 8.614h8ZM30.268 14c-9.08 0-16.232 7.556-16.232 16.614h8c0-4.874 3.8-8.614 8.232-8.614v-8ZM14.036 30.614c0 4.98 2.147 9.477 5.574 12.532l5.324-5.97c-1.762-1.572-2.898-3.913-2.898-6.561h-8Zm5.46 8.3-1.434 1.473 5.731 5.582 1.434-1.473-5.73-5.581Zm5.274 8.006 1.88-1.93-5.732-5.582-1.88 1.93 5.732 5.582Zm-1.525-1.323a15.878 15.878 0 0 0 7.023 1.632v-8a7.879 7.879 0 0 1-3.493-.811l-3.53 7.18Zm7.023 1.632c2.456 0 4.792-.56 6.884-1.565l-3.46-7.212c-1.041.499-2.198.777-3.424.777v8Zm0-1.402c8.33 0 14.873-6.928 14.873-15.213h-8c0 4.101-3.192 7.213-6.873 7.213v8ZM45.14 30.614c0-8.284-6.544-15.212-14.873-15.212v8c3.68 0 6.873 3.112 6.873 7.212h8ZM30.268 15.402c-8.33 0-14.873 6.928-14.873 15.213h8c0-4.101 3.192-7.213 6.873-7.213v-8ZM15.395 30.615c0 8.284 6.544 15.212 14.873 15.212v-8c-3.68 0-6.873-3.112-6.873-7.213h-8Zm11.676-.317v.543h8v-.543h-8Zm0 .543v.282h8v-.282h-8Zm6.437.325v-.325h-8v.325h8Zm0-.325v-.543h-8v.543h8Zm0-.543V26.5h-8v3.798h8Zm0-3.798v-3.56h-8v3.56h8Zm-6.437-3.56v3.56h8v-3.56h-8Zm0 3.56v3.798h8V26.5h-8Zm3.219-8.34a4.781 4.781 0 0 0-4.782 4.78h8a3.219 3.219 0 0 1-3.218 3.22v-8Zm-3.22 12.963a3.197 3.197 0 0 1 3.198-3.197v8a4.803 4.803 0 0 0 4.803-4.803h-8Zm-.42 13.867a2.943 2.943 0 0 1-3.405.607l3.53-7.179c-1.826-.898-4.227-.683-5.857.99l5.732 5.582Zm-8.588 1.93a4.682 4.682 0 0 0 6.708 0l-5.731-5.582a3.318 3.318 0 0 1 4.754 0l-5.731 5.582Zm0-6.533a4.681 4.681 0 0 0 0 6.533l5.731-5.582a3.318 3.318 0 0 1 0 4.63l-5.731-5.58Zm22.888-1.393c1.343 1.38.944 3.305-.133 4.248l-5.27-6.018c-1.995 1.748-2.523 5.098-.328 7.352l5.731-5.582ZM30.29 26.16a3.219 3.219 0 0 1-3.22-3.22h8c0-2.64-2.14-4.78-4.78-4.78v8ZM19.61 43.146c-1.064-.948-1.447-2.862-.114-4.231l5.731 5.581c2.18-2.238 1.675-5.565-.293-7.32l-5.324 5.97Zm22.697 3.774a4.682 4.682 0 0 0 0-6.533l-5.732 5.582a3.318 3.318 0 0 1 0-4.63l5.732 5.58Zm-6.708 0a4.682 4.682 0 0 0 6.708 0l-5.732-5.581a3.318 3.318 0 0 1 4.755 0l-5.731 5.58Zm-5.331-18.994a3.24 3.24 0 0 1 3.24 3.24h-8a4.76 4.76 0 0 0 4.76 4.76v-8Zm9.236 11.538c-1.616-1.66-3.992-1.886-5.813-1.012l3.46 7.213a2.943 2.943 0 0 1-3.378-.62l5.731-5.581Z" fill="#fff" mask="url(#a)"/><path fill="#fff" d="M29.5 19v-4H31v4z"/><rect x="22.5" y="15" width="15.5" height="1.5" rx=".75" fill="#fff"/></g></symbol><symbol id="icons-arrow-big"><g fill="none"><path stroke="#000" stroke-width="2" d="M0 6h26"/><path d="m32 6-6.75 5.196V.804L32 6Z" fill="#000"/></g></symbol><symbol id="icons-arrow"><g fill="none"><path stroke="#000" stroke-width="2" d="M0 6h18"/><path d="m24 6-6.75 5.196V.804L24 6Z" fill="#000"/></g></symbol><symbol id="icons-cat-back-1"><g fill="none"><circle cx="25" cy="28" r="25" fill="#68B738"/><g clip-path="url(#a)"><path d="M35.203 0h-.195c-.33.187-.593.474-.75.82a8.028 8.028 0 0 0-.664 1.757.84.84 0 0 1-.761.691 3.77 3.77 0 0 0-2.69 1.948c-.372.661-.69 1.35-.952 2.062-.73 1.897-1.29 3.856-1.98 5.768-.324.871-.339.871-1.316.871-1.168 0-1.085-.18-1.1 1.109 0 .407.123.613.555.593.133 0 .334-.068.385.108.052.175-.123.252-.226.355a4.626 4.626 0 0 1-2.227 1.258c-.977.263-1.975.47-2.926.789-2.443.82-4.7 1.964-6.46 3.902a14.436 14.436 0 0 0-2.437 4.041c-1.888 4.454-2.803 9.144-3.513 13.882a97.062 97.062 0 0 0-.75 6.7C7.102 47.759 7 48.877 7 50h17.141a1.126 1.126 0 0 0-.118-.66 2.577 2.577 0 0 0-1.97-1.582c-.36-.083-.401-.191-.18-.474.36-.483.637-1.023.818-1.598.838-2.48 1.162-5.067 1.568-7.63.23-1.956.83-3.85 1.77-5.582a11.126 11.126 0 0 1 2.874-3.283c.427-.325.443-.325.515.226.051.366.061.743.087 1.114a48.166 48.166 0 0 1-.092 7.31 31.866 31.866 0 0 0-.078 5.67A38.826 38.826 0 0 0 30.503 50h6.84a2.79 2.79 0 0 0-2.18-2.289 4.62 4.62 0 0 0-1.934.103c-.309.073-.438 0-.463-.335a29.113 29.113 0 0 1 .514-8.154 91.803 91.803 0 0 0 1.574-9.371 9.163 9.163 0 0 1 1.172-3.609c.612-1.092 1.147-2.226 1.749-3.324a3.031 3.031 0 0 0 .216-2.676c-.139-.366-.273-.737-.442-1.087-.515-1.005-1.029-2-1.502-3.016-.252-.515-.196-.577.365-.593.838 0 .838 0 .854-.845v-.34c0-.356-.134-.552-.515-.516h-.781c-.355 0-.458-.149-.37-.515a3.217 3.217 0 0 1 2.638-2.284 11.291 11.291 0 0 1 3.404.222.513.513 0 0 0 .643-.33c.206-.515.432-1.03.664-1.546a.517.517 0 0 0-.052-.588c-1.646-2.093-3.43-4.046-5.863-5.299a.767.767 0 0 1-.452-.577 10.123 10.123 0 0 0-.653-2.144A1.803 1.803 0 0 0 35.203 0Z" fill="#000"/></g></g></symbol><symbol id="icons-cat-back-2"><g fill="none"><circle cx="34.5" cy="25" r="25" fill="#68B738"/><g clip-path="url(#a)"><path d="M61.55 13.9a7.598 7.598 0 0 1 2.25-2.3c.5-.35.8-.35 1.1.3.4.95.75 1.95.45 3a1.145 1.145 0 0 0 .2 1.05c.3.4.55.8.8 1.15a3.136 3.136 0 0 1 .45 3.1 2.715 2.715 0 0 0-.1 1.55c.1.495.1 1.005 0 1.5a1.875 1.875 0 0 1-1.35 1.6c-.64.122-1.21.478-1.6 1a.525.525 0 0 1-.45.25c-.6.1-2.1-1.25-2.1-1.85v-.3c.05-1.8-.05-1.95-1.7-2.7a2.195 2.195 0 0 1-.9-.6c-.3-.4-.7-.35-1.15-.2-.45.15-.7.45-.65.95.15 1.21.2 2.431.15 3.65a.94.94 0 0 0 .1.4c1.55 2.25 2.15 4.9 2.9 7.45.6 1.95 1.7 3 3.7 3.15.32.025.638.076.95.15a2.08 2.08 0 0 1 1.7 1.6c.35 1.05.15 1.3-.9 1.3h-3.25a1.62 1.62 0 0 1-1.15-.4 5.855 5.855 0 0 0-1.7-1 3.63 3.63 0 0 1-1.7-1.3 14.304 14.304 0 0 0-2-2.25c-1.4-1.45-2.9-2.85-4.2-4.35a5.69 5.69 0 0 1-1.6-3.8c0-.45-.1-.65-.6-.45a.965.965 0 0 1-.5.15c-1.4 0-2.1.85-2.6 2.1-.45 1.05-1.05 2.05-1.6 3.1A5.194 5.194 0 0 0 44 33c0 1.2.3 1.6 1.4 2 .7.25 1.35.5 1.7 1.2.4.8.3 1-.55 1.05h-3.4a.94.94 0 0 1-.95-.55l-.9-1.5a3.024 3.024 0 0 1-.35-2.7 5.93 5.93 0 0 0 .05-2.65 4.209 4.209 0 0 1 .85-3.5c.3-.35.3-.5-.2-.6a25.028 25.028 0 0 1-5.9-2.05.05.05 0 0 1-.05-.05c-1.6-.6-1.9-.5-2.35 1.15-.4 1.4-.8 2.8-1.1 4.25-.35 1.6.05 3.1.55 4.6.2.6.8.55 1.25.7 1 .3 1.85.7 2.25 1.75.35.8.3.9-.55.9-.85 0-1.7-.05-2.6 0a3.32 3.32 0 0 1-2.1-.7c-2.4-1.6-3.1-4.05-3.3-6.7-.1-1.65-1-2.95-2.05-4.2-.2-.25-.4-.35-.7-.15a22.16 22.16 0 0 1-3.35 1.5 13.355 13.355 0 0 0-6.1 4.4 5.315 5.315 0 0 0-1.1 2.55c-.15.9.1 1.3 1 1.55s1.35.75 1.45 1.7c.05.4-.1.6-.5.6h-4.05a.826.826 0 0 1-.65-.4 4.28 4.28 0 0 1-.95-2.75 25.292 25.292 0 0 1 .45-5.15 3.149 3.149 0 0 1 1.7-2.4c2.95-1.4 4.5-4.05 5.9-6.8.3-.55.05-.65-.45-.6a8.233 8.233 0 0 0-3.85 1.6 35.307 35.307 0 0 0-4.15 3.55 8.335 8.335 0 0 1-5.15 2.45c-3.65.2-5.35-1.85-5.2-5.15a4.845 4.845 0 0 1 1.2-3.05 2.125 2.125 0 0 1 2.25-.75c.75.2.95.6.65 1.35-.15.3-.35.55-.5.85a3.75 3.75 0 0 0-.5 1c-.55 1.5.2 2.55 1.75 2.7 1.65.15 3-.55 4.25-1.55a22.474 22.474 0 0 0 4-4.15 10.395 10.395 0 0 1 7.2-4.05c1.15-.15 2.15-.65 3.25-.95 2.057-.627 4.2-.93 6.35-.9a6.5 6.5 0 0 0 2.9-.55c2.45-1 5-1 7.55-.5 2 .4 4 .9 5.95 1.4a8.291 8.291 0 0 0 3.5-.1 33.885 33.885 0 0 1 6.7-1 9.079 9.079 0 0 1 4.3.85c1 .45 1 .45.75 1.4Z" fill="#000"/></g></g></symbol><symbol id="icons-eat"><g fill="none"><path fill="#68B738" d="M.5 0h60v60H.5z"/><path fill-rule="evenodd" clip-rule="evenodd" d="M37.117 15.076a1 1 0 0 1 1.09.217c.909.908 2.097 2.878 3.059 5.918C42.237 24.28 43 28.508 43 34a1 1 0 0 1-1 1h-3.5v9a1 1 0 1 1-2 0V16a1 1 0 0 1 .617-.924ZM38.5 33h2.491c-.086-4.816-.786-8.512-1.632-11.186-.278-.88-.57-1.643-.859-2.295V33Zm-14-18a1 1 0 0 1 1 1v28a1 1 0 1 1-2 0V16a1 1 0 0 1 1-1Z" fill="#fff"/><path fill-rule="evenodd" clip-rule="evenodd" d="M20 15a1 1 0 0 1 1 1v5.5c0 .557.192 1.315.7 1.917.48.566 1.315 1.083 2.8 1.083a1 1 0 1 1 0 2c-2.014 0-3.43-.733-4.326-1.792A5.068 5.068 0 0 1 19 21.5V16a1 1 0 0 1 1-1Z" fill="#fff"/><path fill-rule="evenodd" clip-rule="evenodd" d="M29 15a1 1 0 0 0-1 1v5.5a3.07 3.07 0 0 1-.7 1.917c-.48.566-1.315 1.083-2.8 1.083a1 1 0 0 0 0 2c2.014 0 3.43-.733 4.326-1.792A5.068 5.068 0 0 0 30 21.5V16a1 1 0 0 0-1-1Z" fill="#fff"/></g></symbol><symbol id="icons-email-error"><g fill="none"><path stroke="#FF8282" stroke-width="1.3" d="M.65 6v8m17-8v8M0 13.35h18m-18-12h18m-.65 1.832L9 9.677.65 3.182V1.65h16.7v1.532Z"/></g></symbol><symbol id="icons-email-focus"><g fill="none"><path stroke="#68B738" stroke-width="1.3" d="M1.11 6v8m17-8v8M.46 13.35h18m-18-12h18m-.65 1.832L9.462 9.677l-8.35-6.495V1.65h16.7v1.532Z"/></g></symbol><symbol id="icons-email"><g fill="none"><path stroke="#222" stroke-width="1.3" d="M1.65 5.848v8m17-8v8M1 13.198h18m-18-12h18m-.65 1.832L10 9.524 1.65 3.03V1.498h16.7V3.03Z"/></g></symbol><symbol id="icons-gift"><g fill="none"><path d="M64.016 34.713H14.03c-1.754 0-3.182-1.418-3.182-3.16v-9.469c0-1.743 1.428-3.16 3.182-3.16h49.984c1.754 0 3.18 1.417 3.18 3.16v9.469c0 1.742-1.426 3.16-3.18 3.16ZM14.03 21.346a.751.751 0 0 0-.744.738v9.469c0 .407.334.738.744.738h49.984c.41 0 .743-.331.743-.738v-9.469a.75.75 0 0 0-.743-.738H14.03Z" fill="#fff"/><path d="M57.045 67.149H20.999c-3.377 0-6.125-2.73-6.125-6.086V33.502c0-.669.546-1.212 1.219-1.212s1.219.543 1.219 1.212v27.56c0 2.021 1.654 3.665 3.687 3.665h36.046c2.032 0 3.686-1.644 3.686-3.664V33.502c0-.669.546-1.212 1.219-1.212.672 0 1.218.543 1.218 1.212v27.56c0 3.357-2.747 6.087-6.123 6.087Z" fill="#fff"/><path d="M39.023 67.149a1.215 1.215 0 0 1-1.22-1.211V33.502c0-.669.547-1.211 1.22-1.211.672 0 1.218.542 1.218 1.21v32.436c0 .67-.545 1.212-1.218 1.212ZM23.81 21.34c-3.814-2.054-5.238-6.808-3.173-10.6 2.064-3.789 6.848-5.204 10.665-3.154 5.814 3.13 8.954 11.86 9.084 12.23l-2.3.804c-.029-.083-2.961-8.222-7.944-10.904-2.635-1.415-5.937-.438-7.36 2.177-1.426 2.618-.444 5.9 2.19 7.318l-1.162 2.13Z" fill="#fff"/><path d="m54.231 21.341-1.16-2.13a5.376 5.376 0 0 0 2.622-3.207 5.327 5.327 0 0 0-.431-4.109 5.382 5.382 0 0 0-3.226-2.604 5.426 5.426 0 0 0-4.134.426c-4.982 2.682-7.915 10.82-7.944 10.903l-2.3-.803c.131-.37 3.27-9.101 9.084-12.23a7.859 7.859 0 0 1 5.99-.617 7.8 7.8 0 0 1 4.674 3.771 7.72 7.72 0 0 1 .623 5.953 7.788 7.788 0 0 1-3.798 4.647Zm7.719 29.59H16.093a1.215 1.215 0 0 1-1.219-1.21c0-.67.546-1.212 1.219-1.212H61.95c.672 0 1.218.543 1.218 1.211 0 .669-.545 1.211-1.218 1.211Z" fill="#fff"/></g></symbol><symbol id="icons-leaf"><g fill="none"><path fill="#68B738" d="M.5 0h60v60H.5z"/><g clip-path="url(#a)"><path d="M43.344 16.767c-.1-.45-.48-.767-.911-.767h-.006c-4.938.033-16.945.916-21.793 8.38-2.518 3.878-2.735 8.913-.644 14.965.016.047.048.079.07.122-.747 1.973-1.037 3.286-1.044 3.323-.11.54.214 1.072.72 1.188a.88.88 0 0 0 .197.022c.433 0 .822-.321.916-.79.02-.102 2.409-10.373 10.854-16.378.431-.306.547-.927.26-1.387-.288-.46-.87-.585-1.3-.277-4.79 3.405-7.739 8.008-9.473 11.656-1.242-4.578-.916-8.377.986-11.305 3.743-5.764 12.622-7.154 17.982-7.448-1.153 1.801-2.413 5.103-2.413 10.929 0 3.12-.83 5.522-2.465 7.14-2.62 2.591-6.88 2.834-9.993 2.584-.518-.045-.967.371-1.006.922-.04.55.347 1.03.863 1.072.623.051 1.29.082 1.981.082 3.17 0 6.87-.663 9.43-3.194 2.034-2.011 3.065-4.906 3.065-8.605 0-9.099 3.216-11.096 3.232-11.105.39-.209.594-.677.492-1.129Z" fill="#fff"/></g></g></symbol><symbol id="icons-phone-error"><g fill="none"><g clip-path="url(#a)" fill="#FF8282"><path d="M17.9 9.4H9.4v1.2h8.5l-2.1 2.1.9.9 3.1-3.1a.75.75 0 0 0 0-.9l-3.1-3.1-.9.9 2.1 2Zm-9.8 10v-6.2a.65.65 0 0 0-.6-.6H3.1a1.22 1.22 0 0 0 1.2 1.2h2.5v5H3.1a1.789 1.789 0 0 1-1.9-1.7v-14a1.77 1.77 0 0 1 1.7-1.8h3.9v5H4.4a1.22 1.22 0 0 0-1.2 1.2h4.4a.65.65 0 0 0 .6-.6V.6a.86.86 0 0 0-.7-.6H3.1A3 3 0 0 0 0 2.9v13.9a2.89 2.89 0 0 0 2.9 3.1h4.6a.5.5 0 0 0 .6-.5Z"/></g></g></symbol><symbol id="icons-phone-focus"><g fill="none"><g clip-path="url(#a)" fill="#68B738"><path d="M17.9 9.4H9.4v1.2h8.5l-2.1 2.1.9.9 3.1-3.1a.75.75 0 0 0 0-.9l-3.1-3.1-.9.9 2.1 2Zm-9.8 10v-6.2a.65.65 0 0 0-.6-.6H3.1a1.22 1.22 0 0 0 1.2 1.2h2.5v5H3.1a1.789 1.789 0 0 1-1.9-1.7v-14a1.77 1.77 0 0 1 1.7-1.8h3.9v5H4.4a1.22 1.22 0 0 0-1.2 1.2h4.4a.65.65 0 0 0 .6-.6V.6a.86.86 0 0 0-.7-.6H3.1A3 3 0 0 0 0 2.9v13.9a2.89 2.89 0 0 0 2.9 3.1h4.6a.5.5 0 0 0 .6-.5Z"/></g></g></symbol><symbol id="icons-phone"><g fill="none"><g clip-path="url(#a)" fill="#000"><path d="M17.9 9.753H9.4v1.204h8.5l-2.1 2.107.9.903 3.1-3.11a.754.754 0 0 0 0-.904l-3.1-3.11-.9.903 2.1 2.007ZM8.1 19.787v-6.221a.653.653 0 0 0-.6-.602H3.1a1.226 1.226 0 0 0 1.2 1.204h2.5v5.017H3.1a1.784 1.784 0 0 1-1.728-1.02 1.801 1.801 0 0 1-.172-.686V3.431a1.78 1.78 0 0 1 .483-1.25A1.767 1.767 0 0 1 2.9 1.624h3.9v5.017H4.4a1.218 1.218 0 0 0-1.2 1.204h4.4a.649.649 0 0 0 .6-.602V.923A.863.863 0 0 0 7.5.32H3.1a2.99 2.99 0 0 0-2.151.81A3.01 3.01 0 0 0 0 3.23v13.948a2.91 2.91 0 0 0 .772 2.192 2.89 2.89 0 0 0 2.128.919h4.6a.499.499 0 0 0 .6-.502Z"/></g></g></symbol><symbol id="icons-teaf"><g fill="none"><path fill="#68B738" d="M.5 0h60v60H.5z"/><g clip-path="url(#a)"><path d="M43.344 16.767c-.1-.45-.48-.767-.911-.767h-.006c-4.938.033-16.945.916-21.793 8.38-2.518 3.878-2.735 8.913-.644 14.965.016.047.048.079.07.122-.747 1.973-1.037 3.286-1.044 3.323-.11.54.214 1.072.72 1.188a.88.88 0 0 0 .197.022c.433 0 .822-.321.916-.79.02-.102 2.409-10.373 10.854-16.378.431-.306.547-.927.26-1.387-.288-.46-.87-.585-1.3-.277-4.79 3.405-7.739 8.008-9.473 11.656-1.242-4.578-.916-8.377.986-11.305 3.743-5.764 12.622-7.154 17.982-7.448-1.153 1.801-2.413 5.103-2.413 10.929 0 3.12-.83 5.522-2.465 7.14-2.62 2.591-6.88 2.834-9.993 2.584-.518-.045-.967.371-1.006.922-.04.55.347 1.03.863 1.072.623.051 1.29.082 1.981.082 3.17 0 6.87-.663 9.43-3.194 2.034-2.011 3.065-4.906 3.065-8.605 0-9.099 3.216-11.096 3.232-11.105.39-.209.594-.677.492-1.129Z" fill="#fff"/></g></g></symbol><symbol id="icons-tick"><g fill="none"><path d="m10 19.499-7.6-8.598L1 12.485l9 10.182 15-16.97L23.6 4 10 19.499Z" fill="#68B738"/></g></symbol><symbol id="icons-tub"><g fill="none"><path fill="#68B738" d="M.5 0h60v60H.5z"/><g clip-path="url(#a)" fill="#fff"><path d="M36.276 31.473c-1.706 0-3.088 1.478-3.088 3.301 0 1.824 1.383 3.302 3.088 3.302 1.706 0 3.088-1.478 3.088-3.302 0-1.823-1.383-3.3-3.088-3.3Zm0 5.013c-.884 0-1.6-.766-1.6-1.71 0-.947.716-1.713 1.6-1.713.884 0 1.602.766 1.602 1.712 0 .945-.718 1.711-1.602 1.711Zm-9.17-23.496c-1.76 0-3.187 1.525-3.187 3.407 0 1.882 1.427 3.407 3.188 3.407s3.187-1.524 3.187-3.407-1.427-3.407-3.187-3.407Zm0 5.476c-1.069 0-1.935-.926-1.935-2.07 0-1.142.866-2.069 1.935-2.069 1.07 0 1.936.927 1.936 2.07 0 1.143-.866 2.069-1.936 2.069Zm-3.38 12.144c-1.293 0-2.34 1.12-2.34 2.503s1.047 2.503 2.34 2.503c1.295 0 2.342-1.12 2.342-2.503s-1.047-2.503-2.341-2.503ZM23.5 32.5c-.459 0 1.158 1.104 1.158.613 0-.49-1.617.387-1.158.387.459 0 1.057-.877 1.057-.388 0 .49-.598-.612-1.057-.612ZM34 22.763s3.04-.839 6.178 1.493c.907.76 1.766 1.337 1.152 2.123-.343.34-.637.657-1.716-.524-1.054-.76-2.72-1.898-5.614-1.442-1.128.237-1.961.551-3.556 2.15-1.593 1.598-3.972 2.725-6.497 2.489-2.525-.236-3.849-1.258-5.246-2.542-.294-.42-.294-.865-.123-1.127.171-.262.833-.524 1.201-.132.368.394 2.109 1.966 3.825 2.07 1.716.105 3.433.21 5.737-1.965 2.306-2.174 3.458-2.331 4.66-2.593Z"/><mask id="b"><path d="M44.146 39.816V21.157c0-.578-.374-.65-.524-.655h-.506c-.493 0-.536.557-.538.739v.06c.002 3.609.01 18.254-.002 18.54a2.681 2.681 0 0 1-.82 1.887c-.809.695-1.618.603-1.618.603s-20.177 0-20.656-.026c-.38-.066-1.041-.21-1.605-1.01-.564-.798-.454-1.847-.454-1.847V21.315c0-.839-.674-.812-.674-.812h-.307c-.536 0-.585.588-.588.776v18.537c0 1.337.453 2.398 1.548 3.337 1.094.939 2.375.856 2.375.856s19.723 0 20.581-.002c.859-.003 1.986-.417 2.916-1.555.93-1.14.872-2.636.872-2.636Z"/></mask><path d="M44.146 39.816V21.157c0-.578-.374-.65-.524-.655h-.506c-.493 0-.536.557-.538.739v.06c.002 3.609.01 18.254-.002 18.54a2.681 2.681 0 0 1-.82 1.887c-.809.695-1.618.603-1.618.603s-20.177 0-20.656-.026c-.38-.066-1.041-.21-1.605-1.01-.564-.798-.454-1.847-.454-1.847V21.315c0-.839-.674-.812-.674-.812h-.307c-.536 0-.585.588-.588.776v18.537c0 1.337.453 2.398 1.548 3.337 1.094.939 2.375.856 2.375.856s19.723 0 20.581-.002c.859-.003 1.986-.417 2.916-1.555.93-1.14.872-2.636.872-2.636Z"/><path d="M44.146 39.816h-20v.387l.015.387 19.985-.774Zm-.524-19.314.71-19.987-.355-.013h-.355v20Zm-1.044.739-20-.15v.15h20Zm0 .06h-20v.008l20-.008Zm-.002 18.54-19.985-.758v.013l19.985.745Zm-.82 1.887 13.039 15.165.431-.37.41-.396-13.88-14.399Zm-1.618.603 2.26-19.872-1.127-.128h-1.133v20Zm-20.656-.026-3.394 19.71 1.133.195 1.149.064 1.112-19.97Zm-1.605-1.01L1.533 52.824l.004.006 16.34-11.533Zm-.454-1.847 19.89 2.098.11-1.046v-1.052h-20Zm-.674-18.945v20h.388l.387-.015-.775-19.985Zm-.895.776-19.998-.288-.002.144v.144h20Zm1.548 21.874L4.376 58.33l13.026-15.177Zm2.375.856v-20h-.643l-.64.042 1.283 19.958Zm23.497-1.557 15.49 12.653.005-.008-15.495-12.645Zm20.872-2.636V21.157h-40v18.659h40Zm0-18.659c0-4.97-1.859-11.419-7.618-16.084-4.89-3.96-10.03-4.481-12.196-4.558l-1.42 39.974a19.462 19.462 0 0 1-11.56-4.332c-5.535-4.483-7.206-10.608-7.206-15h40ZM43.622.502h-.506v40h.506v-40Zm-.506 0a20.47 20.47 0 0 0-12.283 4.083 20.527 20.527 0 0 0-6.419 8.034 21.136 21.136 0 0 0-1.835 8.473l39.999.298c-.006.733-.014 3.914-1.667 7.598a19.474 19.474 0 0 1-6.096 7.61 19.53 19.53 0 0 1-11.699 3.904v-40ZM22.578 21.241v.05h40v-.05h-40Zm0 .05v.01h40v-.01h-40Zm0 .018.004 10.511a8664.752 8664.752 0 0 1-.002 7.252c-.002.788-.006.45.01.011L62.563 40.6c.02-.51.018-1.37.018-1.45l.002-1.808v-5.528c0-4.15-.003-8.719-.004-10.52l-40 .016Zm.012 17.787c.05-1.35.384-7.042 5.285-11.766l27.761 28.797c6.396-6.166 6.852-13.536 6.927-15.54L22.59 39.096Zm6.126-12.532a17.512 17.512 0 0 1 7.807-3.844 17.955 17.955 0 0 1 4.628-.362 19.312 19.312 0 0 1 1.097.085l.075.008.037.004.019.002c.01.001.019.002-2.241 19.874-2.26 19.872-2.25 19.873-2.241 19.874l.018.002a42.98 42.98 0 0 0 .269.029 20.68 20.68 0 0 0 2.597.093 22.044 22.044 0 0 0 3.983-.468 22.487 22.487 0 0 0 10.03-4.968l-26.078-30.33ZM40.138 42.33v-20h-3.156a17380.765 17380.765 0 0 1-14.032-.01l-2.357-.007c-1.071-.005-.614-.013.002.022L18.37 62.274c.97.054 7.17.051 11.606.054l6.997.003h3.165v-20ZM22.877 22.595c.432.074 2.526.427 4.938 1.653a17.618 17.618 0 0 1 6.401 5.514L1.537 52.83c4.995 7.076 11.877 8.725 14.551 9.186l6.789-39.42Zm11.344 7.174c2.348 3.33 2.908 6.508 3.08 7.954a16.586 16.586 0 0 1 .049 3.439 18.522 18.522 0 0 1-.027.29l-.005.047-.002.024-.002.011c0 .006 0 .012-19.89-2.086s-19.89-2.092-19.891-2.086l-.002.012-.002.024a19.88 19.88 0 0 0-.069.827 23.438 23.438 0 0 0 .117 4.197c.257 2.17 1.043 6.272 3.956 10.401L34.22 29.768Zm3.203 9.68V21.314h-40v18.133h40Zm0-18.134c0-6.89-3.412-14.004-10.265-17.999A20.69 20.69 0 0 0 16 .516c-.013.001-.025.002.75 19.987.776 19.985.763 19.985.751 19.986h-.024l-.05.002a28.228 28.228 0 0 1-.3.008 19.363 19.363 0 0 1-17.35-10.06 19.028 19.028 0 0 1-2.352-9.124h40ZM16.749.503h-.307v40h.307v-40Zm-.307 0c-4.037 0-8.32 1.191-12.061 3.905a20.562 20.562 0 0 0-6.553 7.946 21.167 21.167 0 0 0-1.972 8.636l39.996.578c-.011.758-.045 3.996-1.784 7.718a19.438 19.438 0 0 1-6.2 7.5 19.477 19.477 0 0 1-11.426 3.717v-40ZM-4.146 21.279v18.537h40V21.279h-40Zm0 18.537c0 7.063 2.92 13.705 8.522 18.514l26.051-30.354c1.295 1.111 2.855 2.871 3.994 5.373a15.716 15.716 0 0 1 1.433 6.467h-40ZM4.377 58.33a23.586 23.586 0 0 0 10.48 5.17 23.615 23.615 0 0 0 5.087.51 21.336 21.336 0 0 0 .991-.034l.063-.004.03-.002h.016c.008-.001.016-.002-1.267-19.96-1.283-19.96-1.276-19.96-1.268-19.96a1.105 1.105 0 0 1 .046-.003l.061-.004a16.029 16.029 0 0 1 .371-.018 18.5 18.5 0 0 1 1.584.008c.737.037 1.607.13 2.571.334 1.88.398 4.642 1.34 7.285 3.609L4.377 58.33Zm15.4-14.32v20H22.872l6.875-.001c5.007 0 10.202 0 10.668-.002l-.113-40H39.22l-2.443.001-7.033.001h-9.968v20Zm20.638 19.997c7.104-.02 13.8-3.336 18.348-8.903L27.786 29.8c2.686-3.29 7.128-5.777 12.516-5.792l.113 40Zm18.354-8.91c3.246-3.977 4.434-8.096 4.913-10.529a24.742 24.742 0 0 0 .464-4.58 21.801 21.801 0 0 0-.015-.934c0-.006 0-.013-19.985.762-19.985.774-19.986.767-19.986.761v-.013l-.001-.025-.002-.05a17.128 17.128 0 0 1 .016-1.569c.033-.576.105-1.28.262-2.075.275-1.4 1.028-4.201 3.344-7.039l30.99 25.291Z" mask="url(#b)"/></g></g></symbol><symbol id="logo-desktop"><g fill="none"><g clip-path="url(#a)"><path d="M59.88 23.8a25.43 25.43 0 0 0-8.05-10.37 25.72 25.72 0 0 0-25.29-3.35A25.59 25.59 0 0 0 16.03 18a25.3 25.3 0 0 0-3.55 25.05 25.42 25.42 0 0 0 7.9 10.49 25.72 25.72 0 0 0 12.13 5.18c-.58-2.07-1.17-4.36-1.69-6.8 1.51.98 3.1 1.83 4.76 2.54 0 0 .12 2.14.28 4.53 1.79.03 3.58-.13 5.33-.47a2.1 2.1 0 0 1 0-.75c.3-1.85 1.1-5.2 1.25-7.35a15.11 15.11 0 0 0 2.9-3.68l-.06.44c-.55 4.22-1.7 8.74-2.4 9.98-.23.42-.5.8-.83 1.15a25.73 25.73 0 0 0 16.96-13.16 25.27 25.27 0 0 0 .87-21.34Zm-1.47 3.77c-.44.42-1.35.71-1.5-.58-.15-1.29-.19-2.2-.19-2.2s-1.93-3.4-2.65-3.43c-.72-.04-5.83 3.44-7.18 4.96-1.17 1.28-1.4 1.19-1.4 3.44 0 1.7.22 8.1.1 13l-8.15 2.15c-2.56.73-5.17 1.3-7.8 1.71l-1-5.78h-.14l-2.57-13.07s-3.8-1.42-5.2-1.81a3.79 3.79 0 0 0-4.01.62 5.03 5.03 0 0 0-1.73 3.82c.21.46.37.95.48 1.44.05.48-1.2.43-2 .43s-.92-1.43-.29-3.1c.5-1.3 1.1-2.54 1.82-3.72a11.78 11.78 0 0 1 2.07-2.86s.14-.34 1.25-.24c1.11.1 7.28.42 7.28.42l.05-2.25c6.7-.92 13.47-1.36 20.24-1.33v1.82a22.67 22.67 0 0 1 8.14-1.98.92.92 0 0 1 .77.38c.34.43 2.41 2.98 2.65 3.34.67.96 1.29 1.95 1.83 2.98a6.17 6.17 0 0 1-.87 1.83Z" fill="#FDC305"/><path d="m56.46 21.5 1 1.27c.68.96 1.29 1.95 1.83 2.98a6.17 6.17 0 0 1-.86 1.77c-.44.42-1.35.71-1.5-.58a52.31 52.31 0 0 1-.2-2.14s-1.94-3.4-2.66-3.44c-.72-.04-5.83 3.44-7.18 4.96-1.17 1.28-1.4 1.19-1.4 3.44 0 1.49.17 6.6.13 11.14 1.81.2 4.47.7 5.27 1.86 0 0-.29-7.12 7.81-3.39 0 0 .28-9.71 11.46-7.22a43.67 43.67 0 0 0-13.7-10.65Zm-10.53-2.3c.04-5.5-.43-11-1.4-16.4 0 0-.15-1.3-.87-.24-.6 1.26-1 2.6-1.2 3.97a71.46 71.46 0 0 0-12.82.33c-.82-2.72-2.22-3.96-2.89-3.64-.67.33-.75 3.26-.75 3.26l-.33 14.04c6.71-.92 13.49-1.36 20.26-1.33Z" fill="#F06351"/><path d="M45.35 46.74c.13-1.06.2-2.47.24-4.03l-8.15 2.16a64.43 64.43 0 0 1-7.8 1.75l1.11 4.96c0 .11 0 .22.07.33a32.4 32.4 0 0 0 4.76 2.53 42.48 42.48 0 0 0 6.88-4.1v.06a15.12 15.12 0 0 0 2.9-3.66Z" fill="#E55645"/><path d="M32 16.09c-.05-.1 1 .67 1.41.91.41.24.61.42.61.59 0 .17-.26.33-.62.33s-.92-.11-1-.25c-.08-.14.6 0 .94 0h.3A8.05 8.05 0 0 1 32 16.09Zm7.5.11s-1 1.27-1.09 1.33c-.09.06-.17.33.2.29.4-.07.81-.16 1.21-.28.11-.06.07-.2-.12-.18-.19.02-.68.05-1 .1l.85-1.25s.03-.12-.05-.01Zm-3.14 6.06c.47-.2.85-.55 1.1-1 .27-.65 0-.9-.45-.99-.6-.1-1.23.02-1.75.34-.39.37-.34.73 0 1 .34.26.7.48 1.1.65Z" fill="#000"/><path d="M36 23.5c-.11.23-.27.44-.46.6-.28.23-.63.36-1 .38a2.2 2.2 0 0 1-1.54-.44 2 2 0 0 1-.53-.44 1 1 0 0 0-.36-.25s.75 4.08 2.57 4.73c1.82.66 2.16-.75 2.21-1.13a5.55 5.55 0 0 0-.82-3.21c0-.3-.02-.1-.07-.23Z" fill="#F06351"/><path d="M34.3 24.64a3.52 3.52 0 0 1-2.35-1.42.15.15 0 0 1 0-.2.14.14 0 0 1 .16-.03l.04.03a3.2 3.2 0 0 0 2.11 1.3 2.12 2.12 0 0 0 1.64-.99l.14-.19.1.22s.38.75 1 .8c.62.03 1.06-.42 1.63-1.29a.14.14 0 0 1 .2-.04.14.14 0 0 1 .04.2c-.67.97-1.3 1.44-1.89 1.4a1.56 1.56 0 0 1-1.12-.72 2.25 2.25 0 0 1-1.7.93Z" fill="#000"/><path d="M36.26 38a3.73 3.73 0 0 0 3.75-3.73 3.73 3.73 0 0 0-3.75-3.72 3.73 3.73 0 0 0-3.75 3.72A3.73 3.73 0 0 0 36.26 38Z" fill="#FDC305"/><path d="m41.23 31.25-3.13 1.3 1.15-5.59-7.5 9.68 3.13-1.3-1.15 5.6 7.5-9.7Zm-7.39 3.8L38 29.67l-.8 3.97 2-.82L35 38.2l.81-3.97-1.97.8Zm-1.4-1.46a1.116 1.116 0 1 0 0-2.23 1.12 1.12 0 1 0 0 2.22Zm6.52 4.02c.44 0 .8-.35.8-.78a.79.79 0 0 0-.8-.78.79.79 0 0 0-.79.78c0 .43.36.78.8.78Zm.96-2.15c.2 0 .35-.15.35-.35a.34.34 0 0 0-.35-.34c-.2 0-.35.15-.35.34 0 .2.16.35.35.35Z" fill="#111"/><path d="M45.88 20.99a57.22 57.22 0 0 0-5.09 5.17 31.79 31.79 0 0 1-5.3 4.86c-.23-.53-1.64-1.51-1.64-1.51s-3.14-2.13-5.2-3.8a31.78 31.78 0 0 1-3.14-2.98l-2-.11a22.62 22.62 0 0 0 12 8.76c.86-.13 3.28-1.85 5.1-3.25a57.44 57.44 0 0 0 6-5.86 6.4 6.4 0 0 0 1.13-1.98c-1.14.37-1.86.7-1.86.7Z" fill="#F06351"/><path d="m65.22 3.47-8.46 9.37-1.22-1.98L63.7 0l1.53 3.47Zm-2.57 13.65 5.54-4.08-.78-3.7-5.4 4.77.64 3.01Zm-2.73 31.85 6.13 3.16 3.01-2.33-6.69-2.72-2.45 1.9ZM1.95 5.92 5.02 2.6l9.29 8.93-1.22 2.26L1.95 5.92Zm5.43 10.23-4.7-3.1-2.4 3.83 5.15 2.38 1.95-3.11Zm6.53 35.98-4.55 3.32 2.8 3.55 4.02-3.99-2.27-2.88Z" fill="#FDC305"/><path d="M25.93 27.77s-3.8-1.42-5.2-1.81a3.79 3.79 0 0 0-4 .62 5.03 5.03 0 0 0-1.74 3.82c.21.46.37.95.48 1.44.05.48-1.2.43-2 .43s-.92-1.43-.29-3.1c.5-1.3 1.1-2.54 1.82-3.72-5.45 2.82-15 9.33-15 9.33a46.2 46.2 0 0 1 8.19.24c5.25.52 5 4.63 5 4.63 1.85-.5 3.73-.88 5.63-1.1 2.12-.14 2.27 2.1 2.27 2.1l.53 3.83c.8-.87 1.7-1.65 2.65-2.34a6.1 6.1 0 0 1 4.38-1.3l-2.72-13.07Z" fill="#F06351"/><path d="M85.66 41.66a8.17 8.17 0 0 1-1.4-5.15v-7.44a8.3 8.3 0 0 1 1.38-5.2c.93-1.18 2.51-1.77 4.75-1.76 2.24 0 3.76.53 4.55 1.56a6.63 6.63 0 0 1 1.33 4.45v1.75h-4.14v-1.9c0-.5-.04-1-.13-1.49a1.66 1.66 0 0 0-.47-.94 1.56 1.56 0 0 0-1.15-.36 1.47 1.47 0 0 0-1.5.74c-.26.7-.37 1.44-.34 2.18v9.44c-.04.75.1 1.5.4 2.19a1.48 1.48 0 0 0 1.44.72 1.36 1.36 0 0 0 1.4-.73c.25-.7.35-1.44.31-2.18v-1.98h4.14v1.72A7.15 7.15 0 0 1 95 41.85c-.88 1.1-2.4 1.63-4.56 1.63-2.16 0-3.85-.6-4.78-1.82Zm16.26-19.26h4.73l4 20.83h-3.94l-.7-4.6h-3.33l-.8 4.57h-4l4.04-20.8Zm3.64 13.6-1.25-8.36-1.25 8.37h2.5Zm8.16-10.47h-3.23V22.4h10.72v3.13H118V43.2h-4.3l.02-17.67Z" fill="#111"/><path d="M129.62 22.4h8.13v2.16h-5.2v6.87h4.22v2.06h-4.22v7.63h5.25v2.08h-8.18V22.4Zm10.54 0h2l6 13.82V22.4h2.44v20.83h-1.87l-6-14.2V43.2h-2.48l-.1-20.8Zm13.67 0h8.12v2.16h-5.2v6.87H161v2.06h-4.22v7.63H162v2.08h-8.18V22.4Zm10.53 0h4.22a7.04 7.04 0 0 1 4.67 1.3c1 .86 1.49 2.27 1.49 4.22 0 2.65-.87 4.26-2.6 4.85l3 10.43h-2.83l-2.75-9.76h-2.27v9.76h-2.93V22.4Zm4 8.93a3.9 3.9 0 0 0 2.7-.76 3.54 3.54 0 0 0 .82-2.69 5.76 5.76 0 0 0-.3-1.98 1.88 1.88 0 0 0-1-1.07 4.8 4.8 0 0 0-2.04-.35h-1.3v6.88l1.12-.03Zm10.32 10.33a9.11 9.11 0 0 1-1.27-5.3V29.4c-.04-1.34.13-2.68.5-3.97.29-.97.9-1.81 1.74-2.39 1.01-.6 2.18-.9 3.36-.83a5.3 5.3 0 0 1 4.18 1.47 6.9 6.9 0 0 1 1.28 4.59v.77h-2.75v-.64a11.3 11.3 0 0 0-.18-2.3c-.1-.49-.36-.92-.76-1.22a3.02 3.02 0 0 0-1.72-.4c-.65-.06-1.3.13-1.81.55-.42.39-.69.9-.77 1.46-.13.82-.19 1.65-.17 2.47v7.73a7.4 7.4 0 0 0 .59 3.43 2.83 2.83 0 0 0 3.5.73c.38-.2.71-.47.97-.82a8 8 0 0 0 .6-3.62v-1.46h-2.65V32.9h5.3v10.3h-1.81l-.3-2.4a3.66 3.66 0 0 1-3.72 2.66 4.7 4.7 0 0 1-4.11-1.8Zm16.02-5.8-4.53-13.46h2.72l3.2 10.04 3.17-10.04H202l-4.5 13.46v7.34h-2.8l-.01-7.34Z" fill="#444"/></g></g></symbol><symbol id="logo-footer"><g fill="none"><g clip-path="url(#a)" fill="#111"><path d="M1.6 22.05A9.5 9.5 0 0 1 0 16.31V7.79a9.63 9.63 0 0 1 1.5-5.84C2.6.62 4.3 0 6.81 0c2.5 0 4.1.62 5.1 1.74a7.49 7.49 0 0 1 1.51 5.03v2.05h-4.9V6.46c.03-.7-.07-1.4-.3-2.05a1.46 1.46 0 0 0-.59-.63 1.41 1.41 0 0 0-.82-.19c-.7 0-1.2.2-1.4.72-.23.73-.33 1.49-.3 2.25v10.98c-.05.74.08 1.48.4 2.15.2.52.7.72 1.4.72s1.1-.2 1.3-.72c.23-.7.33-1.42.3-2.15v-2.46h4.91v2.05a7.98 7.98 0 0 1-1.5 5.13c-1 1.23-2.7 1.84-5.1 1.84-2.41-.1-4.22-.72-5.22-2.05ZM19.33.3h5.7l4.22 23.4h-4.61l-.8-4.93h-3.3l-.8 4.92h-4.72L19.33.31Zm4.1 15.4-1.2-9.14-1.2 9.13h2.4Zm9.32-11.5h-3.4V.3h11.91v3.8h-3.4v19.6h-5.1V4.2ZM50.38.3h8.81v2.47h-5.7v7.7h4.6v2.35h-4.6v8.62h5.7v2.35h-8.91V.31h.1ZM61.8.3H64l6.51 15.5V.3h2.6v23.4h-2l-6.6-16v16H61.8V.3Zm14.32 0h8.81v2.47h-5.7v7.7h4.6v2.35h-4.6v8.62h5.7v2.35h-8.81V.31Zm11.42 0h4.6a7.87 7.87 0 0 1 5.11 1.44c1.1.93 1.6 2.57 1.6 4.72 0 2.98-.9 4.82-2.8 5.44l3.2 11.69h-3.1l-3-10.97h-2.5v10.97h-3.21V.31h.1Zm4.4 10.06a4.3 4.3 0 0 0 2.9-.82c.6-.51.91-1.54.91-3.08a6.77 6.77 0 0 0-.3-2.25 2.58 2.58 0 0 0-1.1-1.24 4.47 4.47 0 0 0-2.2-.4h-1.4v7.69h1.2v.1Zm10.92 11.59a10.58 10.58 0 0 1-1.4-5.95V8.2c-.03-1.48.14-2.96.5-4.4a5.2 5.2 0 0 1 1.9-2.67c1.12-.68 2.41-1 3.7-.92 2.11 0 3.61.5 4.52 1.64a7.98 7.98 0 0 1 1.4 5.12v.82h-3v-.71c0-.86-.07-1.72-.2-2.57a2.06 2.06 0 0 0-.8-1.33 3.04 3.04 0 0 0-1.91-.51 2.96 2.96 0 0 0-2 .61 2.3 2.3 0 0 0-.8 1.64c-.14.92-.2 1.85-.2 2.77v8.72a9.53 9.53 0 0 0 .6 3.9c.4.82 1.2 1.13 2.4 1.13a2.37 2.37 0 0 0 2.4-1.23c.53-1.3.77-2.7.7-4.1v-1.65h-2.9V12.1h5.8v11.6h-2l-.3-2.67c-.26.89-.8 1.67-1.55 2.2-.74.55-1.64.81-2.55.77a4.9 4.9 0 0 1-4.3-2.05Zm17.13-6.46L115.08.4h3l3.51 11.28L124.99.4H128l-4.9 15.08v8.2h-3.01v-8.2h-.1Z"/></g></g></symbol><symbol id="logo-htmlacademy" viewBox="0 0 60 60"><path fill="#2E368F" d="M30.2 5H30L10.3 7.1v36.2L30 55l19.7-11.7V7.1L30.2 5zm17 36.8L30 52 12.8 41.8V27l17.1 10.2V39l-11.7-7v1.8L30 40.9v1.9l-11.8-7v1.8l11.8 7 11.9-7.1v-7.6l5.3-3.2v15.1zm-.1-17-4.7 2.8-2.2 1.3-10.3-6.1v1.8l8.8 5.3h-.1l-.2.1-1.3.7-7.3-4.3v1.8l5.8 3.4-1.4.9-4.3-2.6v1.8l2.9 1.7-2.9 1.7-17-10.1 17-10.2 17.2 10zm.1-1.8L29.9 12.8 12.8 23V9.4L30 7.6l17.2 1.8V23z"/></symbol><symbol id="logo-mobile"><g fill="none"><g clip-path="url(#a)"><path d="M6.07 20.72v-2.26a143.265 143.265 0 0 1 20.17-1.33c0 .6 0 1.21-.06 1.82a25.518 25.518 0 0 1 6-1.82A16.67 16.67 0 0 0 .19 20.39l5.88.33Zm21.17 3.51c-1.16 1.28-1.39 1.2-1.39 3.45v9.18A16.64 16.64 0 0 0 33.32 23a17.302 17.302 0 0 0-.32-3.1 33.109 33.109 0 0 0-5.76 4.33ZM6.36 25.72s-3.79-1.44-5.19-1.83A8.541 8.541 0 0 0 0 23.61a16.65 16.65 0 0 0 8.68 14L6.36 25.72Z" fill="#FDC305"/><path d="M26.29 17.12A89.799 89.799 0 0 0 24.89.65S24.75-.64 24 .41a14.22 14.22 0 0 0-1.2 3.94 70.34 70.34 0 0 0-12.77.34C9.24 2 7.85.75 7.18 1c-.67.25-.72 3.31-.72 3.31l-.33 14.1a143.211 143.211 0 0 1 20.16-1.29Z" fill="#F06351"/><path d="M12.41 14c0-.09 1 .68 1.41.92.41.24.61.42.61.59 0 .17-.27.34-.63.34s-.91-.12-1-.27h1.23A8.34 8.34 0 0 1 12.41 14Zm7.48.11-1.09 1.33c0 .06-.17.35.18.3a7.351 7.351 0 0 0 1.22-.29c.11 0 .07-.19-.11-.17-.18.02-.69.05-1 .11l.84-1.26s.07-.13-.04-.02Zm-3.14 6.09a2.3 2.3 0 0 0 1.09-1c.28-.65 0-.91-.44-1a2.43 2.43 0 0 0-1.74.34c-.39.36-.34.72-.05 1a5.34 5.34 0 0 0 1.14.66Z" fill="#000"/><path d="M16.35 21.45a1.92 1.92 0 0 1-.46.6 1.73 1.73 0 0 1-1 .38 2.15 2.15 0 0 1-1.47-.43 2.3 2.3 0 0 1-.53-.44c-.1-.11-.223-.2-.36-.26 0 0 .75 4.1 2.57 4.75 1.82.65 2.14-.75 2.2-1.13a5.61 5.61 0 0 0-.82-3.23c-.02-.31-.03-.11-.13-.24Z" fill="#F06351"/><path d="M14.71 22.59a3.44 3.44 0 0 1-2.361-1.466.14.14 0 0 1 .031-.154.14.14 0 0 1 .2 0 3.26 3.26 0 0 0 2.11 1.3 2.09 2.09 0 0 0 1.63-1l.14-.19.1.21s.37.76 1 .8c.63.04 1.05-.41 1.61-1.28a.14.14 0 0 1 .2 0 .15.15 0 0 1 .05.2c-.64 1-1.27 1.44-1.88 1.4a1.549 1.549 0 0 1-1.12-.76 2.26 2.26 0 0 1-1.71.94Z" fill="#000"/><path d="M26.24 18.92a58.634 58.634 0 0 0-5.07 5.19A31.633 31.633 0 0 1 15.88 29c-.22-.53-1.62-1.51-1.62-1.51s-3.13-2.14-5.18-3.82a34.139 34.139 0 0 1-3.13-3l-2-.11a22.57 22.57 0 0 0 12 8.8c.86-.14 3.27-1.86 5.07-3.26a58.13 58.13 0 0 0 5.94-5.89 6.15 6.15 0 0 0 1.14-2c-1.1.39-1.86.71-1.86.71Z" fill="#F06351"/></g><g clip-path="url(#b)" fill="#111"><path d="M91.264 29.538A6.865 6.865 0 0 1 90 25.231v-6.385a6.95 6.95 0 0 1 1.185-4.385c.87-1 2.213-1.461 4.189-1.461s3.24.462 4.03 1.308a5.418 5.418 0 0 1 1.186 3.769v1.538h-3.872v-1.769a3.691 3.691 0 0 0-.238-1.538 1.12 1.12 0 0 0-.456-.473 1.164 1.164 0 0 0-.65-.143c-.553 0-.948.154-1.106.539a4.846 4.846 0 0 0-.237 1.692v8.23a3.112 3.112 0 0 0 .316 1.616c.158.385.553.539 1.106.539s.87-.154 1.027-.539c.18-.52.26-1.067.238-1.615v-1.846h3.872v1.538a5.776 5.776 0 0 1-1.185 3.846c-.79.923-2.134 1.385-4.031 1.385-1.897-.077-3.32-.538-4.11-1.538Zm13.989-16.307h4.504l3.32 17.538h-3.636l-.632-3.692h-2.608l-.632 3.692h-3.715l3.399-17.538Zm3.24 11.538-.948-6.846-.949 6.846h1.897Zm7.35-8.615h-2.687V13.23h9.404v2.846h-2.687v14.692h-4.03V16.154Zm13.909-2.923h6.955v1.846h-4.505v5.77h3.635v1.768h-3.635v6.462h4.505v1.77h-7.034V13.23h.079Zm9.009 0h1.739l5.137 11.615V13.231h2.055v17.538h-1.581l-5.216-12v12h-2.134V13.231Zm11.302 0h6.954v1.846h-4.504v5.77h3.635v1.768h-3.635v6.462h4.504v1.77h-6.954V13.23Zm9.009 0h3.635a6.452 6.452 0 0 1 4.031 1.077c.869.692 1.264 1.923 1.264 3.538 0 2.23-.711 3.615-2.212 4.077l2.528 8.77h-2.449l-2.371-8.232h-1.976v8.231h-2.529V13.231h.079Zm3.477 7.538a3.523 3.523 0 0 0 2.292-.615c.474-.385.711-1.154.711-2.308a4.84 4.84 0 0 0-.237-1.692 1.975 1.975 0 0 0-.869-.923 3.69 3.69 0 0 0-1.739-.308h-1.106v5.77h.948v.076Zm8.615 8.693A7.607 7.607 0 0 1 170.057 25v-5.846a12.267 12.267 0 0 1 .395-3.308 3.92 3.92 0 0 1 1.502-2 5.27 5.27 0 0 1 2.924-.692c1.66 0 2.845.385 3.556 1.23a5.773 5.773 0 0 1 1.107 3.847v.615h-2.371v-.538c.003-.644-.05-1.288-.158-1.923a1.533 1.533 0 0 0-.633-1 2.491 2.491 0 0 0-1.501-.385 2.417 2.417 0 0 0-1.581.462 1.734 1.734 0 0 0-.632 1.23 14.024 14.024 0 0 0-.158 2.077v6.539a6.816 6.816 0 0 0 .474 2.923c.316.615.949.846 1.897.846.374.045.754-.018 1.092-.182.337-.165.617-.422.805-.741a6.922 6.922 0 0 0 .553-3.077v-1.23h-2.292v-1.77h4.584v8.692h-1.581l-.237-2a3.143 3.143 0 0 1-1.226 1.658 3.287 3.287 0 0 1-2.014.573c-.653.037-1.306-.084-1.899-.352s-1.108-.676-1.499-1.187Zm13.514-4.847-3.873-11.307h2.371l2.766 8.461 2.687-8.461H191l-3.872 11.307v6.154h-2.371v-6.154h-.079Z"/></g></g></symbol><symbol id="logo-tablet"><g fill="none"><g clip-path="url(#a)"><path d="M51.582 20.854a22.231 22.231 0 0 0-6.936-9.09 21.96 21.96 0 0 0-10.503-4.396A21.887 21.887 0 0 0 22.865 8.83a22.083 22.083 0 0 0-9.058 6.934 22.354 22.354 0 0 0-4.43 10.564 22.432 22.432 0 0 0 1.373 11.386 22.238 22.238 0 0 0 6.813 9.184 21.965 21.965 0 0 0 10.442 4.54c-.5-1.815-1.008-3.822-1.456-5.951a27.756 27.756 0 0 0 4.1 2.215s.104 1.877.241 3.971c1.54.027 3.08-.11 4.592-.408a1.874 1.874 0 0 1 0-.66c.25-1.625.939-4.553 1.077-6.439a13.212 13.212 0 0 0 2.498-3.224l-.052.383c-.474 3.701-1.464 7.655-2.067 8.75a4.845 4.845 0 0 1-.715.999 22.006 22.006 0 0 0 8.563-4.141 22.237 22.237 0 0 0 6.047-7.386 22.45 22.45 0 0 0 .749-18.694Zm-1.266 3.293c-.38.374-1.163.626-1.293-.504-.129-1.13-.163-1.92-.163-1.92s-1.663-2.98-2.283-3.015c-.62-.035-5.022 3.015-6.185 4.344-1.008 1.121-1.206 1.043-1.206 3.015 0 1.486.19 7.1.086 11.392l-7.02 1.886a54.724 54.724 0 0 1-6.72 1.494l-.861-5.066h-.12L22.335 24.33s-3.282-1.252-4.488-1.59a3.213 3.213 0 0 0-3.445.547c-.472.417-.85.931-1.107 1.509a4.437 4.437 0 0 0-.384 1.836c.182.404.321.826.414 1.26.043.417-1.034.374-1.723.374-.69 0-.793-1.251-.25-2.72.424-1.129.948-2.217 1.568-3.25a10.312 10.312 0 0 1 1.783-2.51s.12-.296 1.077-.21c.956.088 6.271.374 6.271.374l.043-1.972a121.95 121.95 0 0 1 17.436-1.165v1.59a19.265 19.265 0 0 1 7.011-1.737.778.778 0 0 1 .664.339c.293.373 2.076 2.607 2.283 2.928.579.835 1.105 1.705 1.576 2.607a5.44 5.44 0 0 1-.75 1.599v.008Z" fill="#FDC305"/><path d="M48.636 18.83c.405.52.758.981.862 1.12.579.835 1.105 1.706 1.576 2.607a5.444 5.444 0 0 1-.74 1.547c-.38.373-1.164.625-1.293-.504-.13-1.13-.18-1.877-.18-1.877s-1.663-2.98-2.283-3.015c-.62-.035-5.023 3.015-6.186 4.344-1.008 1.121-1.206 1.043-1.206 3.015 0 1.304.147 5.779.112 9.758 1.56.174 3.851.609 4.54 1.634 0 0-.25-6.239 6.728-2.972 0 0 .241-8.506 9.872-6.325a37.712 37.712 0 0 0-11.802-9.333ZM39.565 16.814A79.266 79.266 0 0 0 38.36 2.45s-.129-1.13-.749-.208a12.474 12.474 0 0 0-1.034 3.475 60.536 60.536 0 0 0-11.043.296c-.707-2.39-1.913-3.476-2.49-3.189-.577.287-.646 2.85-.646 2.85l-.284 12.304a121.956 121.956 0 0 1 17.452-1.165Z" fill="#F06351"/><path d="M39.065 40.943c.112-.93.172-2.163.207-3.527l-7.02 1.885a54.724 54.724 0 0 1-6.72 1.538l.957 4.345c0 .095 0 .19.06.286a27.759 27.759 0 0 0 4.1 2.216 36.485 36.485 0 0 0 5.927-3.589v.053a13.21 13.21 0 0 0 2.49-3.207Z" fill="#E55645"/><path d="M27.566 14.094c-.043-.087.861.59 1.214.8.353.208.526.364.526.512 0 .148-.224.295-.534.295-.31 0-.793-.104-.862-.226-.069-.121.517 0 .81 0h.25a6.987 6.987 0 0 1-1.404-1.381ZM34.026 14.19s-.861 1.112-.939 1.164c-.077.052-.146.295.164.252a6.911 6.911 0 0 0 1.051-.244c.095-.052.06-.173-.103-.156-.164.017-.586.043-.862.096l.732-1.104s.026-.104-.043-.009ZM31.322 19.498c.399-.177.729-.482.938-.868.242-.574 0-.791-.379-.87a2.095 2.095 0 0 0-1.507.296c-.336.322-.293.634 0 .869.29.23.61.423.948.573Z" fill="#000"/><path d="M31.011 20.593a1.78 1.78 0 0 1-.396.522c-.245.199-.547.314-.861.33a1.866 1.866 0 0 1-1.327-.383 1.724 1.724 0 0 1-.456-.39.862.862 0 0 0-.31-.218s.645 3.572 2.213 4.145c1.568.573 1.86-.66 1.904-.99a4.925 4.925 0 0 0-.706-2.816c0-.26-.018-.087-.06-.2Z" fill="#F06351"/><path d="M29.547 21.584a2.998 2.998 0 0 1-2.024-1.243.131.131 0 0 1 0-.173.122.122 0 0 1 .086-.037.121.121 0 0 1 .086.037 2.785 2.785 0 0 0 1.817 1.138 1.806 1.806 0 0 0 1.413-.87l.12-.164.087.191s.327.66.861.695c.534.035.913-.365 1.404-1.12a.123.123 0 0 1 .172-.035.125.125 0 0 1 .035.173c-.574.852-1.117 1.26-1.628 1.225a1.328 1.328 0 0 1-.965-.634 1.954 1.954 0 0 1-1.464.817Z" fill="#000"/><path d="M31.235 33.28c1.784 0 3.23-1.46 3.23-3.259 0-1.8-1.446-3.258-3.23-3.258s-3.23 1.458-3.23 3.258 1.446 3.258 3.23 3.258Z" fill="#FDC305"/><path d="m35.516 27.37-2.696 1.14.99-4.893-6.46 8.48 2.697-1.138-.991 4.901 6.46-8.49ZM29.151 30.7l3.583-4.701-.698 3.476 1.723-.713-3.61 4.71.699-3.476-1.697.704ZM27.945 29.422a.969.969 0 0 0 .965-.974.969.969 0 0 0-.965-.973.969.969 0 0 0-.965.973c0 .538.432.974.965.974ZM33.561 32.95c.376 0 .68-.308.68-.687a.684.684 0 0 0-.68-.687.684.684 0 0 0-.68.687c0 .379.304.686.68.686ZM34.388 31.064a.303.303 0 0 0 .302-.304.303.303 0 0 0-.302-.305.303.303 0 0 0-.301.305c0 .168.135.304.301.304Z" fill="#111"/><path d="M39.522 18.386a49.73 49.73 0 0 0-4.384 4.527 27.555 27.555 0 0 1-4.574 4.258c-.19-.46-1.405-1.32-1.405-1.32s-2.704-1.869-4.48-3.337a27.578 27.578 0 0 1-2.704-2.607l-1.723-.096a19.507 19.507 0 0 0 10.337 7.681c.741-.121 2.826-1.624 4.385-2.85a49.885 49.885 0 0 0 5.169-5.135c.429-.514.761-1.103.982-1.738-.982.33-1.603.617-1.603.617ZM22.337 24.33s-3.282-1.252-4.488-1.59a3.214 3.214 0 0 0-3.446.547c-.472.417-.85.931-1.107 1.509a4.439 4.439 0 0 0-.383 1.836c.182.404.32.826.413 1.26.043.417-1.033.374-1.723.374-.689 0-.792-1.251-.25-2.72.424-1.129.949-2.217 1.568-3.25C8.227 24.764 0 30.464 0 30.464a39.136 39.136 0 0 1 7.055.209c4.523.46 4.307 4.058 4.307 4.058a33.033 33.033 0 0 1 4.85-.965c1.826-.121 1.956 1.842 1.956 1.842l.456 3.354a15.804 15.804 0 0 1 2.283-2.05 5.189 5.189 0 0 1 3.773-1.13L22.337 24.33Z" fill="#F06351"/><path d="M73.79 36.495a7.25 7.25 0 0 1-1.206-4.51v-6.517a7.364 7.364 0 0 1 1.189-4.553c.798-1.037 2.162-1.553 4.091-1.547 1.93.006 3.236.46 3.92 1.364a5.875 5.875 0 0 1 1.145 3.902v1.53h-3.566v-1.66a8.768 8.768 0 0 0-.112-1.304 1.464 1.464 0 0 0-.405-.825 1.341 1.341 0 0 0-.99-.322 1.248 1.248 0 0 0-1.292.652 4.79 4.79 0 0 0-.293 1.911v8.273c-.04.654.076 1.31.336 1.911a1.265 1.265 0 0 0 1.25.634c.241.035.488-.008.705-.124.216-.115.391-.297.5-.519a5.114 5.114 0 0 0 .267-1.902V31.15h3.566v1.503a6.342 6.342 0 0 1-1.06 4.006c-.758.955-2.067 1.425-3.928 1.425-1.86 0-3.316-.522-4.117-1.59ZM87.788 19.62h4.083l3.446 18.247h-3.394l-.612-4.031h-2.86l-.689 4.005h-3.445l3.471-18.22Zm3.144 11.922-1.085-7.334-1.077 7.334h2.162ZM97.962 22.366H95.17V19.62h9.234v2.746h-2.757V37.84h-3.695l.008-15.475Z" fill="#111"/><path d="M111.65 19.62h7.003v1.894h-4.479v6.022h3.635v1.799h-3.635v6.682h4.522v1.824h-7.046v-18.22ZM120.729 19.62h1.723l5.168 12.104V19.62h2.102v18.247h-1.611l-5.168-12.442V37.84h-2.136l-.078-18.22ZM132.505 19.62h6.994v1.894h-4.479v6.022h3.67v1.799h-3.635v6.682h4.496v1.824h-7.046v-18.22ZM141.576 19.62h3.635a5.994 5.994 0 0 1 4.023 1.138c.861.756 1.283 1.99 1.283 3.702 0 2.317-.744 3.733-2.231 4.249l2.584 9.132h-2.446l-2.369-8.55H144.1v8.55h-2.524v-18.22Zm3.445 7.82c.83.081 1.66-.154 2.326-.66a3.115 3.115 0 0 0 .706-2.355 5.12 5.12 0 0 0-.249-1.738 1.645 1.645 0 0 0-.862-.938 4.068 4.068 0 0 0-1.766-.304h-1.111v6.03l.956-.035ZM153.911 36.495a8.104 8.104 0 0 1-1.094-4.65v-6.082a11.857 11.857 0 0 1 .431-3.475 3.894 3.894 0 0 1 1.499-2.094 5.056 5.056 0 0 1 2.894-.73c.657-.063 1.32.02 1.941.241a4.526 4.526 0 0 1 1.66 1.045 6.12 6.12 0 0 1 1.102 4.023v.678h-2.368v-.565a10.088 10.088 0 0 0-.155-2.016 1.742 1.742 0 0 0-.655-1.069 2.567 2.567 0 0 0-1.482-.356 2.158 2.158 0 0 0-1.559.486 2.229 2.229 0 0 0-.663 1.287c-.109.715-.158 1.439-.147 2.163v6.769a6.575 6.575 0 0 0 .509 3.006 2.434 2.434 0 0 0 1.944.912 2.426 2.426 0 0 0 1.906-.99 7.111 7.111 0 0 0 .526-3.171V30.62h-2.292v-1.799h4.566v9.02h-1.56l-.249-2.095a3.211 3.211 0 0 1-1.206 1.725 3.158 3.158 0 0 1-2.007.595 3.985 3.985 0 0 1-1.971-.328 4.02 4.02 0 0 1-1.57-1.244ZM167.711 31.411l-3.902-11.79h2.343l2.765 8.793 2.722-8.794h2.369l-3.876 11.791v6.43h-2.412l-.009-6.43Z" fill="#444"/></g></g></symbol><symbol id="logo_html"><g fill="none"><path d="M13.64.02 13.5 0 0 1.4v24.61L13.5 34 27 26.01V1.41L13.64 0Zm11.6 25L13.5 31.96 1.77 25.02v-10.1l11.68 6.93.02 1.25-8.02-4.75v1.23l8.04 4.8.02 1.3-8.05-4.76v1.22l8.04 4.81 8.12-4.83V16.9l3.62-2.15v10.26Zm0-11.57L22 15.33l-1.48.88-7.06-4.19-.01 1.23 6.04 3.57-.06.03-.13.07-.86.5-4.98-2.95-.01 1.22 3.93 2.33-.93.61-.02.01-2.97-1.74-.01 1.23 1.94 1.13-1.98 1.19L1.8 13.58l11.63-6.96 11.8 6.83Zm0-1.22L13.43 5.3 1.77 12.22V2.99L13.5 1.76 25.23 3v9.24Z" fill="#666"/></g></symbol><symbol id="telegram"><g fill="none"><path fill-rule="evenodd" clip-rule="evenodd" d="M23.46 3.15c.18.15.27.38.23.61l-2.63 15.76a.66.66 0 0 1-1.01.44l-7.88-5.25a.66.66 0 0 1-.15-.96l2.61-3.26-4.36 2.9a.66.66 0 0 1-.65.05L4.36 10.8a.66.66 0 0 1 .08-1.2l18.38-6.57a.66.66 0 0 1 .64.11ZM6.33 10.32l3.53 1.77 7.56-5.04a.66.66 0 0 1 .88.96l-4.8 6 6.43 4.3 2.28-13.66-15.88 5.67Z" fill="#666"/></g></symbol><symbol id="vkontakte"><g fill="none"><path d="M1 5.339c0-.855.515-1.316 1.545-1.383l3.97.025a.52.52 0 0 1 .533.377c.409 1.257.866 2.343 1.372 3.257.506.913 1.168 1.965 1.985 3.156.071.15.187.226.346.226.125 0 .223-.059.294-.176l.08-.277.026-4.35c0-.302-.075-.503-.226-.604-.151-.1-.431-.176-.84-.226-.32-.05-.48-.235-.48-.553 0-.067.01-.118.027-.151.373-1.09 1.44-1.635 3.198-1.635L14.322 3c.675 0 1.234.16 1.678.478.444.318.666.821.666 1.509v5.708c.125.084.24.126.347.126.266 0 .497-.15.692-.453 1.954-2.582 3.011-4.308 3.17-5.18 0-.017.019-.059.054-.126.124-.251.329-.47.613-.654.284-.184.533-.31.746-.377a.554.554 0 0 1 .24-.05h4.13l.266.025c.355 0 .63.16.826.478.07.1.12.21.146.327.027.117.045.234.054.352.008.117.013.184.013.2v.177c-.124.687-.44 1.42-.946 2.2-.506.78-1.15 1.622-1.932 2.528-.781.905-1.27 1.5-1.465 1.785-.16.201-.24.386-.24.554 0 .134.071.285.214.452l3.89 4.627c.213.269.32.562.32.88 0 .386-.16.705-.48.956-.32.252-.702.394-1.146.428l-.453.025h-4.05a.855.855 0 0 0-.106.012.862.862 0 0 1-.107.013c-.39 0-.755-.16-1.092-.478-.125-.134-.96-1.123-2.505-2.967a1.387 1.387 0 0 0-.373-.327c-.07.268-.164.654-.28 1.157-.115.503-.2.863-.253 1.081l-.08.427c-.177.587-.55.94-1.119 1.057l-.373.025h-2.61c-1.475 0-2.945-.637-4.41-1.911-1.466-1.275-2.784-2.922-3.957-4.942-1.172-2.02-2.264-4.372-3.277-7.054A1.916 1.916 0 0 1 1 5.338Zm16.013 6.513c-.373 0-.71-.096-1.013-.29-.302-.192-.453-.456-.453-.791V4.987c0-.336-.089-.575-.266-.717-.178-.143-.489-.214-.933-.214l-1.518.05c-.764 0-1.341.126-1.732.378.781.352 1.172.922 1.172 1.71v4.426a1.5 1.5 0 0 1-.533 1.044 1.59 1.59 0 0 1-1.066.414c-.532 0-.94-.243-1.225-.729C8.06 9.371 7.03 7.493 6.356 5.716l-.24-.654-3.544-.025c-.231 0-.36.013-.386.038-.027.025-.04.096-.04.213 0 .151.017.31.053.478l.56 1.409c1.491 3.638 3.112 6.505 4.862 8.6 1.75 2.096 3.468 3.144 5.155 3.144h2.665c.106 0 .186-.03.24-.088.053-.06.097-.172.133-.34l.053-.251.506-2.213c.142-.302.267-.503.373-.604a.975.975 0 0 1 .693-.277c.426 0 .861.243 1.305.73l2.265 2.716c.142.218.293.327.453.327h4.396c.533 0 .8-.126.8-.378a.466.466 0 0 0-.08-.251l-3.864-4.552c-.302-.352-.453-.73-.453-1.132s.142-.788.427-1.156c.23-.336.679-.893 1.345-1.673a37.63 37.63 0 0 0 1.745-2.188c.498-.679.826-1.295.986-1.848l.08-.327c-.018-.033-.027-.088-.027-.163s-.009-.139-.026-.189h-4.183c-.267.1-.48.252-.64.453l-.16.478c-.444 1.156-1.607 2.942-3.49 5.356a1.892 1.892 0 0 1-1.305.503Z" fill="#666"/></g></symbol><symbol id="youtube"><g fill="none"><path d="m17.85 10.8-5.24-3.5a.65.65 0 0 0-1.01.55v6.98a.65.65 0 0 0 1.01.54l5.24-3.49a.65.65 0 0 0 0-1.09Zm-4.94 2.8V9.08l3.4 2.27-3.4 2.27Zm12.48-8.56a2.4 2.4 0 0 0-1.45-1.63C20.22 1.98 14.25 2 14 2s-6.22-.02-9.94 1.4a2.4 2.4 0 0 0-1.45 1.64 25.32 25.32 0 0 0-.61 6.3c0 3.26.33 5.22.61 6.3a2.4 2.4 0 0 0 1.45 1.63c3.72 1.43 9.69 1.4 9.94 1.4h.08c.75 0 6.31-.04 9.86-1.4a2.4 2.4 0 0 0 1.45-1.64c.28-1.07.61-3.03.61-6.3 0-3.25-.33-5.22-.61-6.29Zm-1.27 12.27a1.1 1.1 0 0 1-.65.74c-3.5 1.34-9.4 1.32-9.47 1.32-.07 0-5.98.02-9.47-1.32a1.09 1.09 0 0 1-.65-.74c-.27-1-.57-2.85-.57-5.97 0-3.12.3-4.97.57-5.97a1.1 1.1 0 0 1 .65-.74C8.03 3.29 13.93 3.3 14 3.3c.07 0 5.98-.02 9.47 1.32a1.1 1.1 0 0 1 .65.74c.27 1 .57 2.85.57 5.97 0 3.12-.3 4.96-.57 5.97Z" fill="#666"/></g></symbol></svg>