<svg width="26" height="30" viewBox="0 0 26 30" fill="none" xmlns="http://www.w3.org/2000/svg">
  <path fill-rule="evenodd" clip-rule="evenodd" d="M19.1173.0761497c.3737-.154781.8038-.06922525 1.0898.2167723.9085.908498 2.0967 2.877728 3.0588 5.917898C24.2373 9.28039 25 13.5081 25 19c0 .5523-.4477 1-1 1h-3.5v9c0 .5523-.4477 1-1 1s-1-.4477-1-1V1.00003c0-.404463.2436-.769099.6173-.9238803ZM20.5 18h2.4912c-.0859-4.8164-.7861-8.51245-1.6321-11.18576-.2784-.87967-.5706-1.64274-.8591-2.29529V18ZM6.5 0c.55228 0 1 .447715 1 1v28c0 .5523-.44772 1-1 1s-1-.4477-1-1V1c0-.552285.44772-1 1-1Z" fill="#fff"/>
  <path fill-rule="evenodd" clip-rule="evenodd" d="M2 0c.55228 0 1 .447715 1 1v5.5c0 .55686.19203 1.31518.70088 1.91656C4.18001 8.98281 5.01446 9.5 6.49993 9.5c.55228 0 1 .44771 1 1 0 .5523-.44772 1-1 1-2.01446 0-3.42998-.7328-4.32583-1.79156C1.30797 8.68482 1 7.44314 1 6.5V1c0-.552285.44772-1 1-1Z" fill="#fff"/>
  <path fill-rule="evenodd" clip-rule="evenodd" d="M11 0c-.5523 0-1 .447715-1 1v5.5c0 .55686-.19203 1.31518-.70088 1.91656C8.81999 8.98281 7.9854 9.5 6.49993 9.5c-.55228 0-.99986.44771-.99986 1 0 .5523.44758 1 .99986 1 2.01446 0 3.43012-.7328 4.32597-1.79156C11.692 8.68482 12 7.44314 12 6.5V1c0-.552285-.4477-1-1-1Z" fill="#fff"/>
</svg>
