<svg width="30" height="31" viewBox="0 0 30 31" fill="none" xmlns="http://www.w3.org/2000/svg">
  <g clip-path="url(#a)" fill="#fff">
    <path d="M21.2762 18.4731c-1.706 0-3.0885 1.4784-3.0885 3.3011 0 1.8241 1.383 3.3019 3.0885 3.3019 1.7056 0 3.0881-1.4783 3.0881-3.3019 0-1.8232-1.383-3.3011-3.0881-3.3011Zm0 5.0133c-.884 0-1.6009-.7663-1.6009-1.7113 0-.946.7169-1.7118 1.6009-1.7118.8841 0 1.6014.7658 1.6014 1.7118 0 .945-.7173 1.7113-1.6014 1.7113ZM12.1068-.0101318c-1.7604 0-3.18728 1.5248118-3.18728 3.4070918S10.346 6.80357 12.1068 6.80357s3.1873-1.52384 3.1873-3.40661c-.0005-1.88276-1.4269-3.4070918-3.1873-3.4070918ZM12.1063 5.46573c-1.0689 0-1.9353-.92613-1.9353-2.06925 0-1.14264.8664-2.06925 1.9353-2.06925 1.0694 0 1.9358.92661 1.9358 2.06925 0 1.14312-.8664 2.06925-1.9358 2.06925ZM8.72693 17.6105c-1.29367 0-2.3413 1.1198-2.3413 2.5027 0 1.3824 1.04763 2.5028 2.3413 2.5028 1.29367 0 2.34127-1.1204 2.34127-2.5028s-1.0476-2.5027-2.34127-2.5027ZM8.50001 19.5c-.45901 0 1.15818 1.1039 1.15818.6132 0-.4897-1.61719.3868-1.15818.3868.45856 0 1.05704-.8774 1.05704-.3877 0 .4906-.59848-.6123-1.05704-.6123ZM19.0002 9.76265s3.04-.83845 6.1779 1.49385c.9071.7599 1.7654 1.3364 1.1523 2.1225-.3435.3405-.6371.6568-1.716-.5241-1.054-.76-2.7197-1.8983-5.6142-1.4415-1.1278.2364-1.9616.5507-3.5557 2.1492-1.5936 1.5984-3.9721 2.7251-6.49735 2.4892-2.52526-.2354-3.84884-1.2579-5.24628-2.542-.29407-.4195-.29407-.8651-.12279-1.1272.17128-.262.83329-.5241 1.20123-.1312.36794.3933 2.10839 1.9656 3.82438 2.0702 1.71641.1046 3.43291.2097 5.73701-1.9656 2.306-2.1739 3.4583-2.3313 4.6595-2.59335Z"/>
    <mask id="b">
      <path d="M29.1457 26.8156V8.15743c0-.57834-.3739-.65003-.5239-.65535h-.5056c-.4935 0-.5365.55654-.5379.73867V8.30129c.0014 3.60861.0091 18.25321-.0018 18.53991-.0123.328-.0734 1.1664-.8211 1.8872-.8084.695-1.6176.603-1.6176.603s-20.17724 0-20.65529-.0266c-.37972-.0654-1.04173-.2098-1.60587-1.009-.56369-.7992-.45313-1.8474-.45313-1.8474V8.31486c0-.83846-.67425-.8123-.67425-.8123h-.30722c-.536045 0-.585436.58803-.588154.77645V26.816c0 1.3369.453574 2.3977 1.547874 3.3369 1.09384.9387 2.37483.8564 2.37483.8564s19.72361 0 20.58181-.0024c.8583-.0025 1.9856-.4166 2.9159-1.5554.9294-1.1387.8714-2.6359.8714-2.6359Z"/>
    </mask>
    <path d="M29.1457 26.8156V8.15743c0-.57834-.3739-.65003-.5239-.65535h-.5056c-.4935 0-.5365.55654-.5379.73867V8.30129c.0014 3.60861.0091 18.25321-.0018 18.53991-.0123.328-.0734 1.1664-.8211 1.8872-.8084.695-1.6176.603-1.6176.603s-20.17724 0-20.65529-.0266c-.37972-.0654-1.04173-.2098-1.60587-1.009-.56369-.7992-.45313-1.8474-.45313-1.8474V8.31486c0-.83846-.67425-.8123-.67425-.8123h-.30722c-.536045 0-.585436.58803-.588154.77645V26.816c0 1.3369.453574 2.3977 1.547874 3.3369 1.09384.9387 2.37483.8564 2.37483.8564s19.72361 0 20.58181-.0024c.8583-.0025 1.9856-.4166 2.9159-1.5554.9294-1.1387.8714-2.6359.8714-2.6359Z"/>
    <path d="M29.1457 26.8156H9.14565v.3872l.01499.387 19.98506-.7742Zm-.5239-19.31352.7101-19.98738-.3549-.0126h-.3552V7.50208Zm-1.0435.73867L7.57885 8.09147l-.00056.07464v.07464H27.5783Zm0 .06054H7.57829v.00754l20.00001-.00754Zm-.0018 18.53991-19.98566-.7579-.00045.0123 19.98611.7456Zm-.8211 1.8872 13.0395 15.1648.4315-.371.4097-.395-13.8807-14.3988Zm-1.6176.603 2.2598-19.87191-1.1263-.12809h-1.1335v20Zm-20.65529-.0266-3.3942 19.7098 1.13323.1952 1.14814.064 1.11283-19.969Zm-1.60587-1.009L-13.4672 39.8231l.0043.0062L2.87664 28.2958Zm-.45313-1.8474 19.88969 2.098.1103-1.0461v-1.0519H2.42351ZM1.74926 7.50256V27.5026h.38779l.38749-.0151-.77528-19.98494Zm-.895374.77645L-19.144 7.99046l-.0021.14427v.14428H.853886ZM2.40176 30.1529-10.6239 45.3296l.0007.0006L2.40176 30.1529Zm2.37483.8564v-20h-.64216l-.64084.0412 1.283 19.9588Zm23.49771-1.5578 15.4888 12.653.006-.0074-15.4948-12.6456Zm20.8714-2.6359V8.15743H9.14565V26.8156H49.1457Zm0-18.65817c0-4.9701-1.8584-11.41945-7.6177-16.08418-4.8897-3.96045-10.0293-4.48155-12.1961-4.55855l-1.4201 39.9748c-2.0168-.0717-6.8945-.5543-11.5598-4.333-5.5349-4.483-7.20635-10.6073-7.20635-14.99907H49.1457ZM28.6218-12.4979h-.5056v40h.5056v-40Zm-.5056 0c-4.1563 0-8.5237 1.2668-12.2831 4.08303-3.511 2.63017-5.4171 5.79945-6.41907 8.033453C7.61649 3.62647 7.58568 7.17652 7.57885 8.09147l39.99885.29855c-.0054.73283-.014 3.91358-1.6664 7.59758-.9293 2.0721-2.7321 5.0909-6.0962 7.611-3.6125 2.7062-7.7895 3.9035-11.6989 3.9035v-40ZM7.57829 8.24075V8.29161H47.5783V8.24075H7.57829Zm0 .05086V8.30129H47.5783V8.29161H7.57829Zm0 .01722c.00068 1.80797.00295 6.36627.00368 10.51167.00037 2.073.00036 4.0374-.00042 5.4997-.0004.7324-.00098 1.3311-.00178 1.752-.0015.7883-.00559.4505.01108.0111l39.97125 1.5159c.0194-.5111.0174-1.3693.0176-1.4509.0009-.4489.0014-1.0695.0018-1.8068.0008-1.477.0008-3.453.0005-5.5281-.0008-4.1507-.003-8.719-.0037-10.51964l-40.00001.01507Zm.0121 17.78677c.05031-1.3487.38379-7.0419 5.28431-11.7661l27.7614 28.7977c6.3959-6.1657 6.8517-13.5358 6.9265-15.5403L7.59039 26.0956ZM13.716 13.5635c2.5391-2.1833 5.3548-3.3276 7.8066-3.84383 1.1922-.25103 2.2904-.35418 3.2499-.37839.4833-.01219.9437-.00466 1.3781.01657.2177.01065.4304.02481.6379.04189.1038.00854.2064.01784.3079.02781.0507.00499.1012.01015.1514.01547.0251.00266.0501.00537.0751.00811.0125.00137.0249.00276.0374.00415.0062.0007.0156.00174.0187.00209.0093.00106.0186.00212-2.2412 19.87403-2.2599 19.8719-2.2506 19.873-2.2412 19.874.0031.0004.0125.0014.0187.0021.0125.0014.025.0028.0376.0042.0252.0028.0505.0055.076.0082.051.0054.1027.0107.155.0158.1045.0103.2118.02.3217.0291.2197.0181.4506.0335.692.0453.4818.0236 1.0117.0329 1.5836.0185 1.1365-.0287 2.4875-.1523 3.9831-.4672 3.0585-.644 6.683-2.0898 10.0306-4.9682L13.716 13.5635Zm11.4218 15.7679c0-20-.0001-20-.0002-20H24.9119c-.1476-.00001-.3642-.00002-.6402-.00005-.5519-.00005-1.3411-.00015-2.2897-.00036-1.8975-.00042-4.4314-.00125-6.9795-.00291-2.55-.00167-5.10679-.00416-7.05268-.00788-.9751-.00186-1.7837-.00401-2.35718-.00646-1.07104-.00457-.61312-.01231.00271.02201L3.36968 49.2738c.97087.0541 7.16992.0514 11.60672.0543 2.5559.0016 5.0961.0025 6.9968.0029.9505.0002 1.7414.0003 2.2948.0004h.8695c.0002 0 .0003 0 .0003-20ZM7.87671 9.59488c.43236.07446 2.52609.42682 4.93779 1.65332 2.5656 1.3047 4.7743 3.2087 6.4016 5.5141l-32.679 23.067c4.99469 7.0759 11.87721 8.7249 14.55121 9.1853l6.7884-39.41972ZM19.2205 16.7685c2.3488 3.3303 2.9087 6.5087 3.0797 7.9542.101.8542.1211 1.5949.1129 2.1832-.0043.3032-.0165.5899-.0336.8586-.0086.1351-.0185.2676-.0296.3974-.0055.0649-.0114.1294-.0175.1934-.0031.0321-.0062.064-.0094.0958-.0016.0159-.0032.0318-.0049.0477-.0008.0079-.0016.0159-.0024.0238-.0004.004-.0011.0099-.0013.0119-.0006.0059-.0012.0119-19.89089-2.0861-19.88971-2.098-19.89031-2.092-19.89091-2.086-.0002.0019-.0008.0079-.0013.0119-.0008.008-.0016.016-.0024.0241-.0017.0161-.0034.0324-.005.0488-.0033.0329-.0066.0663-.0099.1003-.0065.0681-.0129.1385-.0191.2114-.0124.1455-.0242.3013-.0347.4666-.0209.3292-.0374.704-.0432 1.1179-.0114.8098.0163 1.8625.1602 3.0787.2566 2.1694 1.0431 6.2715 3.9556 10.401l32.6877-23.0546Zm3.203 9.6799V8.31486h-40V26.4484h40Zm0-18.13354c0-6.8903-3.4119-14.00404-10.2643-17.99885-2.70903-1.57931-5.24652-2.23411-6.98215-2.52651-.90534-.1525-1.71648-.2273-2.39945-.2614-.34537-.0173-.66885-.0248-.96761-.0256-.14974-.0004-.29432.0009-.43345.0035-.0696.0013-.13796.003-.20502.0049-.03354.001-.06677.002-.09969.0031-.01646.0006-.03285.0012-.04915.0018-.00815.0003-.02034.0007-.024407.0009-.012146.0004-.02429.0009.750987 19.98586.77528 19.98494.76314 19.98544.751 19.98594-.00405.0001-.01623.0006-.02435.0009-.01627.0005-.03259.0011-.04897.0017-.03276.0011-.06574.0021-.09896.0031-.06642.0019-.1338.0035-.20213.0048-.13658.0026-.27737.0038-.42218.0034-.28887-.0008-.59787-.008-.924805-.0243-.646097-.0323-1.404565-.1026-2.246695-.2444-1.6092-.2711-3.97813-.8801-6.51858-2.3611-2.69609-1.5718-5.36509-4.0124-7.23829-7.4338-1.8351-3.3519-2.3518-6.6277-2.3518-9.12394h40ZM1.74926-12.4974h-.30722v40h.30722v-40Zm-.30722 0c-4.03752 0-8.32015 1.1918-12.06134 3.9057-3.5223 2.5551-5.491 5.67394-6.5524 7.945526C-19.0703 3.41727-19.1304 7.0439-19.144 7.99046l39.9958.5771c-.0109.75814-.0449 3.99654-1.7842 7.71884-.9817 2.1011-2.8374 5.0611-6.1996 7.5001-3.58102 2.5977-7.65646 3.7161-11.42596 3.7161v-40ZM-19.1461 8.27901V26.816h40V8.27901h-40Zm0 18.53699c0 7.0631 2.9198 13.7052 8.5222 18.5136l26.0514-30.3534c1.2945 1.1111 2.8548 2.871 3.9934 5.3727 1.1361 2.4964 1.433 4.81 1.433 6.4671h-40Zm8.5229 18.5142c3.73688 3.2069 7.68581 4.5776 10.479889 5.1692 1.420831.3008 2.679321.4312 3.691051.4825.51239.0259.98044.0325 1.39671.0278.20877-.0023.40635-.0075.59195-.0147.09287-.0036.18293-.0077.2701-.0122.04359-.0023.08648-.0047.12866-.0071.02109-.0012.04201-.0025.06274-.0037.01037-.0007.0207-.0013.03098-.002.00513-.0003.01282-.0008.01539-.0009.00766-.0005.01532-.001-1.26768-19.9598S3.50124 11.05 3.50888 11.0495c.00255-.0002.0102-.0007.0153-.001.0102-.0006.02041-.0012.03063-.0019.02042-.0012.04087-.0024.06134-.0036.04094-.0024.08198-.0047.12311-.0068.08225-.0042.16499-.008.24821-.0112.1663-.0065.33529-.0108.5069-.0128.34194-.0038.70137.0019 1.07658.0209.73736.0373 1.60724.1297 2.57109.3338 1.88016.398 4.64166 1.3405 7.28466 3.6087l-26.0499 30.3546ZM4.77659 31.0093c0 20 .00007 20 .00023 20h.84912c.54106 0 1.31494 0 2.24628-.0001 1.86265 0 4.35518-.0001 6.87468-.0002 5.0072-.0003 10.2022-.0009 10.668-.0022l-.1129-39.9999h-.0023c-.0015 0-.0036.0001-.0063.0001h-.0215c-.0181 0-.0416.0001-.0707.0001-.0584.0001-.1349.0001-.2292.0002-.1885.0001-.4419.0002-.7518.0004-.6194.0002-1.4587.0004-2.4432.0006-1.9686.0003-4.5136.0005-7.0325.0007-2.5188.0001-5.01074.0002-6.87309.0002-.93116.0001-1.70489.0001-2.24582.0001H4.77681c-.00015 0-.00022 0-.00022 20ZM25.4149 51.0068c7.1039-.0201 13.8006-3.3355 18.3482-8.9023L12.7855 16.7986c2.687-3.2893 7.129-5.7765 12.5165-5.7917l.1129 39.9999Zm18.3542-8.9097c3.2454-3.9767 4.4342-8.0956 4.913-10.5289.2584-1.3127.3739-2.4609.4252-3.3541.0261-.4548.0368-.866.0387-1.2258.001-.1805-.0002-.35-.003-.5076-.0014-.0789-.0032-.155-.0053-.2282-.001-.0366-.0021-.0725-.0033-.1077-.0006-.0176-.0012-.035-.0018-.0522-.0003-.0086-.0006-.0172-.001-.0258-.0001-.0042-.0004-.0106-.0005-.0127-.0002-.0064-.0004-.0127-19.9854.7615-19.98506.7742-19.9853.7678-19.98555.7615-.00008-.0021-.00032-.0085-.00047-.0127-.00032-.0084-.00063-.0169-.00094-.0253-.00061-.0169-.0012-.0338-.00176-.0506-.00114-.0338-.00218-.0675-.00314-.1013-.00192-.0674-.00348-.135-.00467-.2026-.00237-.1351-.00329-.2713-.00256-.4087.00145-.2734.00945-.5588.02649-.8554.03313-.5769.10508-1.2796.26174-2.0757.2755-1.4 1.02856-4.2009 3.34456-7.0388l30.9897 25.2911Z" mask="url(#b)"/>
  </g>
  <defs>
    <clipPath id="a">
      <path fill="#fff" transform="translate(.5)" d="M0 0h29v31H0z"/>
    </clipPath>
  </defs>
</svg>
