<svg width="31" height="32" viewBox="0 0 31 32" fill="none" xmlns="http://www.w3.org/2000/svg">
  <g clip-path="url(#a)">
    <path d="M28.3438 2.767c-.1004-.45-.4791-.767-.9113-.767h-.0056c-4.9378.033-16.9453.916-21.79315 8.38-2.51813 3.878-2.73469 8.913-.64406 14.965.01593.047.04875.079.07031.122-.74719 1.973-1.03688 3.286-1.04438 3.323-.10875.54.21469 1.072.72094 1.188.06563.015.13125.022.19688.022.43218 0 .82125-.321.91593-.79.01969-.102 2.40844-10.373 10.85343-16.378.4313-.306.5475-.927.2597-1.387-.2878-.46-.8691-.585-1.3003-.277-4.7888 3.405-7.73814 8.008-9.47251 11.656-1.24125-4.578-.91594-8.377.98625-11.305C10.9194 5.755 19.7984 4.365 25.1581 4.071 24.005 5.872 22.745 9.174 22.745 15c0 3.12-.8297 5.522-2.4647 7.14-2.6212 2.591-6.8794 2.834-9.9937 2.584-.51754-.045-.9666.371-1.00598.922-.03937.55.34782 1.03.86348 1.072.6234.051 1.289.082 1.9809.082 3.1706 0 6.8691-.663 9.4294-3.194 2.0344-2.011 3.0656-4.906 3.0656-8.605 0-9.099 3.2156-11.096 3.2316-11.105.39-.209.5943-.677.4922-1.129Z" fill="#fff"/>
  </g>
  <defs>
    <clipPath id="a">
      <path fill="#fff" transform="translate(.5)" d="M0 0h30v32H0z"/>
    </clipPath>
  </defs>
</svg>
